<?xml version="1.0" encoding="utf-8"?>
<!-- Generator: Adobe Illustrator 26.0.2, SVG Export Plug-In . SVG Version: 6.00 Build 0)  -->
<svg version="1.0" id="Ebene_1" xmlns="http://www.w3.org/2000/svg" xmlns:xlink="http://www.w3.org/1999/xlink" x="0px" y="0px"
	 viewBox="0 0 1559.1 2409.4" style="enable-background:new 0 0 1559.1 2409.4;" xml:space="preserve">
<style type="text/css">
	.st0{fill:#1C9291;}
	.st1{fill:#FFFFFF;}
	.st2{font-family:'Arial-Black';}
	.st3{font-size:91.7776px;}
	.st4{font-family:'Arial-BoldMT';}
	.st5{font-size:71.3848px;}
	.st6{font-size:67.9017px;}
	.st7{font-size:52.8141px;}
	.st8{fill:none;stroke:#000000;stroke-width:3;stroke-miterlimit:10;}
	.st9{fill:#639B30;}
	.st10{fill:#B8AC2B;}
	.st11{fill:#F8B830;}
	.st12{fill:#EF7D29;}
	.st13{fill:#E52421;}
	.st14{fill:#010202;}
	.st15{font-size:141.2282px;}
	.st16{fill:none;stroke:#FFFFFF;stroke-width:3;stroke-miterlimit:10;}
	.st17{fill:none;stroke:#FFFFFF;stroke-width:3;stroke-linejoin:round;stroke-miterlimit:10;}
</style>
<g>
	<path class="st0" d="M241.6,252.8H85.7c-15.7,0-28.4-12.7-28.4-28.4V86.8c0-15.7,12.7-28.4,28.4-28.4h155.8
		c15.7,0,28.4,12.7,28.4,28.4v137.5C270,240,257.3,252.8,241.6,252.8z"/>
</g>
<g>
	<path class="st0" d="M1508.1,22c16,0,29,13,29,29v2307.5c0,16-13,29-29,29H51c-16,0-29-13-29-29V51c0-16,13-29,29-29H1508.1
		 M1508.1,0H51C22.8,0,0,22.8,0,51v2307.5c0,28.1,22.8,51,51,51h1457.1c28.1,0,51-22.8,51-51V51C1559.1,22.8,1536.2,0,1508.1,0
		L1508.1,0z"/>
</g>
<g>
	<path class="st1" d="M216,222.6c-0.4,0-0.8,0-1.3,0c-2,0.2-4.3-1.6-5.8-0.2c-1.3,1.3-1.5,3.6-2.2,5.5c-6.8,17.6-28.9,21.2-40.9,6.6
		c-2-2.4-2.8-2.1-4.6,0c-9.3,11.1-25.6,12.1-35.3,2.1c-3.3-3.3-5.2-7.5-6.5-11.8c-0.7-2.2-1.5-2.9-4-2.5
		c-16.8,2.4-29.3-8.6-29.3-25.5c0-3.2-1.3-5.5-3.9-7.1c-6.2-3.7-10.6-8.8-13.2-15.7c-3.8-10.4-1.9-25.9,8.2-33.6
		c3.4-2.6,4.5-5.3,2.9-9.6c-5.3-13.5,5.9-31.3,22.5-31c1.2,0,2.2-0.2,2.6-1.3c2.8-7.5,9.4-11.5,14.9-16.5c1.4-1.3,2.8-2.6,3.9-4.2
		c9.5-13.2,27.5-14,37.8-1.6c1.6,2,2.2,1.6,3.6-0.1c11-12.8,29.5-11.4,38.6,2.8c2,3.1,4.3,5.5,7.7,7.3c4.4,2.3,7.6,6,9.5,10.7
		c0.8,2,1.9,2.9,4.2,2.9c14.3,0.1,25.6,14.7,22.3,28.5c-0.3,1.1-0.6,2.2-1,3.4c-1,3.2-0.7,6,2.4,8.1c14.4,10,14.8,37.1-1.4,47.9
		c-0.8,0.5-1.5,1.2-2.3,1.7c-3.3,1.9-4.5,4.7-4.5,8.6C240.9,212.7,230.8,222.4,216,222.6z M234.3,146.6c1.4-2.6-0.6-2.2-2-2.3
		c-1.5,0-3.2,0.5-3.7-1.8c-0.6-3.1,1.1-3.2,3.5-3.1c0.9,0,2.5,0.5,2.6-1c0.1-1.7-1.7-1.4-2.7-1.3c-2.1,0.2-3.3-0.3-3.8-2.6
		c-0.3-1.7-1.5-3.1-3.5-3.2c-2.2-0.1-2.5-1.4-2.4-3.2c0.1-1.1,0.7-3.1-1.1-3c-1.7,0.1-0.8,2-1,3.1c0,0.1,0,0.2,0,0.3
		c0.2,1.7-0.4,2.6-2.2,2.7c-2.1,0.2-2-1.1-2.3-2.6c-0.3-1.4,1-4-1.3-3.8c-1.9,0.1-1,2.6-1,4.1c0.1,1.9-1.1,2-2.4,2.1
		c-1.4,0.1-2.5-0.1-2.5-2c0-1.5,1.2-4.1-1.2-4.2c-1.9,0-0.8,2.6-1,4c-0.2,1.3-0.4,2.2-2,2.2c-1.5,0-2.4-0.4-2.5-2.1
		c-0.1-1.5,0.9-4.1-0.9-4.1c-2.4,0-0.9,2.7-1.2,4.1c-0.3,1.7-1.4,1.9-2.7,2.1c-1.3,0.1-1.9-0.8-2-1.9c-0.1-0.9,0-1.9,0-2.8
		c0-0.8-0.3-1.5-1.2-1.6c-1,0-1.2,0.8-1.2,1.6c-0.1,0.8-0.1,1.7,0,2.5c0.2,1.5-0.5,2.1-1.9,2.3c-2.7,0.4-2.5-1.3-2.5-3.1
		c0-1.1,0.8-3.1-0.9-3.2c-1.9-0.1-1.3,1.8-1.2,3c0.2,2.2-0.7,3.3-2.9,3.7c-1.9,0.4-3.2,1.6-3.3,3.7c-0.1,1.5-0.9,1.9-2.3,1.9
		c-1.4,0.1-4-0.9-4,1.1c-0.1,2.1,2.5,1.1,3.9,1.2c1.5,0.1,2.4,0.4,2.4,2.2c-0.1,1.5-0.4,2.4-2.1,2.5c-1.5,0.1-4.1-0.8-4,1.1
		c0,2.3,2.7,1.1,4.2,1.3c1.5,0.2,2.1,0.9,2.1,2.2c0,1.4-0.7,2.2-2.1,2.1c-0.4,0-0.8,0-1.3,0c-1.2,0.1-3.1-0.5-3,1.3
		c0.1,1.6,2,1,3.2,1.1c0.5,0.1,1.1,0,1.6,0.1c1.4,0.1,1.6,1.2,1.6,2.3c0,1.1-0.4,1.9-1.6,1.9c-0.6,0-1.3,0-1.9,0
		c-1.1,0.1-2.8-0.2-2.8,1.2c0,1.5,1.7,1.1,2.8,1.3c0.3,0,0.6,0.1,1,0c1.7-0.1,2.6,0.5,2.6,2.3c0,2-1.2,2.1-2.7,2.1
		c-1.3,0-3.5-0.6-3.5,1c-0.1,2,2.2,1.2,3.6,1.4c0.4,0.1,0.8,0,1.3,0c1.6,0.2,1.3,1.4,1.4,2.4c0,1-0.1,1.9-1.5,2c-0.7,0-1.5,0-2.2,0
		c-1.1,0-2.5-0.1-2.5,1.2c-0.1,1.6,1.5,1.2,2.4,1.1c2.3-0.1,3.8,0.4,4.2,3.1c0.3,1.7,1.6,3,3.6,3.1c1.4,0.1,2,0.6,2.2,2.1
		c0.2,1.5-1,4.2,1.2,4.2c2,0,0.8-2.6,1-4c0.3-1.5,0.8-2.4,2.4-2.4c1.5,0,1.8,0.9,2.1,2.2c0.3,1.4-1,4,1,4.1c2.3,0.1,1.2-2.6,1.4-4.1
		c0.2-1.7,1-2.2,2.5-2.1c1.6,0,2.3,0.7,2.2,2.3c-0.1,1.4-0.5,3.8,1,3.8c1.9,0,1.3-2.5,1.3-4c0-1.4,0.4-2.2,1.9-2.2
		c1.4,0,2.5,0.4,2.5,2.1c0,1.1,0,2.1,0,3.2c0,0.7,0.4,1.3,1.1,1.3c0.8,0,1.1-0.6,1.2-1.2c0.1-1.2,0.1-2.3,0.2-3.5
		c0.1-1.5,1.2-1.9,2.5-1.8c1.3,0.1,1.8,0.7,2,2c0.3,1.6-1.4,4.4,1.3,4.4c2.1,0,0.7-2.8,1.1-4.4c0.3-1.1,0.5-2.1,1.9-1.9
		c1.2,0.1,2.3,0.3,2.4,1.9c0,0.7,0,1.5,0.1,2.2c0.1,0.9,0,2.3,1.1,2.3c1.4,0,1-1.5,1.2-2.5c0-0.1,0-0.2,0-0.3
		c-0.2-2.1,0.1-3.7,2.9-3.8c1.4,0,2.7-1.4,2.8-2.7c0.3-3.1,2.1-3.4,4.6-3.1c0.8,0.1,2.2,0.2,2.3-1.1c0-1.6-1.4-1.2-2.4-1.2
		c-0.6-0.1-1.3,0-1.9,0c-1.7,0-2.1-0.9-2.1-2.5c0-1.6,0.7-1.9,2.1-2.1c1.5-0.2,4.2,1.1,4.2-1.3c0-1.9-2.6-0.9-4-1
		c-1.5-0.2-2.3-0.8-2.2-2.4c0-1.7,0.9-2.2,2.4-2.2c0.8,0,1.7,0,2.5,0c0.8,0,1.5-0.2,1.6-1.2c0.1-1-0.7-1.2-1.5-1.3c-1,0-1.9,0-2.9,0
		c-2-0.1-2.9-1.8-2-3.5c0.7-1.4,2-0.8,3.1-1c1.1-0.2,3,0.9,3.1-1c0.1-2-1.9-1.2-3-1.1c-2.9,0.2-3.9-1-3.2-3.8
		C230.5,146.6,232.5,147.4,234.3,146.6z M159.9,214.8c-3.2,4.5-7.3,7.2-12.1,8.7c-0.6,0.2-1.1,0.9-1.6,1.4c-2.4,2.3-5.1,2.5-7.4,0.7
		c-2.3-1.9-2.7-4.9-0.9-7.4c1.7-2.2,4.7-2.8,7.4-1c1.5,1,2.6,0.8,4,0c6.3-3.3,9.3-8.5,8.7-15.5c-0.1-1.1-0.5-2.5,0.3-3
		c2.6-1.6,1.8-4,1.9-6.3c0.1-3.8-0.1-7.6,0.1-11.4c0.1-2.6-0.5-3.8-3.4-4.2c-8.2-1.3-13.8-6.2-16.4-14.1c-0.7-2.1-1.1-4.1-2.7-5.9
		c-1.7-2-1.1-5,1-6.8c2-1.7,5-1.7,7,0c2,1.8,2.7,4.9,0.9,6.8c-2.2,2.3-1.5,4.4-0.3,6.6c2.2,4.3,5.6,7.1,10.3,8.2
		c3.3,0.8,3.7,0.5,3.7-2.9c0-14,0-27.9,0.1-41.9c0-2,0-4.1,0-6.6c-1.1,0.8-1.6,1-1.9,1.4c-2.8,3.3-6,5.9-10.3,7
		c-0.4,0.1-0.7,0.4-1.1,0.7c-4.8,4-6.5,3.9-10.4-0.6c-3.1,3.6-6.2,4.5-8.8,2.1c-1.3-1.2-2.6-1.6-4.2-1.7c-4.9-0.6-9.2-2.3-12.4-6.3
		c-3.3-4-4.7-8.7-4.9-13.8c-0.1-2.8-1.4-3.6-4-3.4c-13.4,0.8-20.5,13.9-16.5,24.1c2.1,5.3,1.4,10.3-3.5,13.9
		c-2.1,1.5-1.6,2.3,0.5,3.4c7.9,4.1,11.6,10.8,11.3,19.7c0,1.2,0.1,2.2,0.7,3.3c1.4,2.9,0.5,5.9-2.1,7.4c-2.2,1.2-5.4,0.5-6.8-1.6
		c-1.7-2.5-1.5-5.4,1.2-7.3c2.2-1.6,2.3-3.4,1.9-5.5c-1-5.7-4.3-9.8-9.7-12.1c-2.1-0.9-3.2-0.3-4.1,1.8
		c-5.6,13.3,0.4,28.4,13.8,34.7c0.4,0.2,0.8,0.2,1.2,0.2c5.1,0.3,10.2,0.7,14.9-1.8c1.6-0.8,3-0.5,3.8,1c1.1,1.8-0.4,2.7-1.7,3.5
		c-3.1,1.9-6.5,2.5-10,2.6c-5.5,0.1-5.5,0.1-5.3,5.5c0.4,11.6,9.9,19.6,21.4,18.2c3.4-0.4,6.5-1.1,6.5-5.6c0-1,0.5-2.1,0.9-3
		c2.9-6.9,6.3-13.3,14.9-14.1c0.9-0.1,1.3-0.7,1.7-1.3c1.4-1.8,3.3-2.1,5.4-1.8c2.2,0.2,3.5,1.7,4.3,3.5c1.1,2.6-0.3,4.6-2.2,5.9
		c-1.6,1.1-3.8,1.8-5.5,0c-2.2-2.3-4.2-1.7-6.5-0.4c-3.4,1.9-5.7,5-6.7,8.5c-1.2,4.2-3.7,8.1-1.8,13.2c2.3,6.2,4.9,11.9,11.3,14.5
		c6.8,2.8,13.3,1.5,19-3.1C160.4,228.4,161.2,222.1,159.9,214.8z M136.7,125.1c3.2-4.1,4.5-4.4,9.2-2.1c1.2,0.6,2.3,0.2,3.3-0.2
		c5.9-2.7,9.6-9,8.8-15.4c-0.2-1.3-0.2-2.3,0.8-3.1c1.4-1.2,1.7-2.8,1.7-4.6c-0.1-3.4,0-6.8,0-10.1c0-1.9,0.2-3.8-0.7-5.6
		c-2.9-6-7.8-9.5-14.3-10.3c-7-0.8-12.6,2.2-16.7,7.7c-2.7,3.5-2,7.3,0.3,10.7c1.8,2.7,3.7,5.6,8.1,4.1c2.7-0.9,5.3,1.1,6,3.8
		c0.6,2.3-0.9,5.3-3.2,6.3c-2.4,1-5.3,0-6.7-2.5c-0.6-1.1-1.2-2.2-2.4-2.9c-3.6-2.2-6.2-5.3-7.8-9.3c-0.4-0.9-0.7-1.7-2-1.4
		c-3.6,0.8-10,6.9-9.9,10.4c0.1,4.2-0.2,8.4,0.9,12.6c1.6,6.3,6.2,10.4,12.1,11c1,0.1,2,0.2,3-0.5
		C131.3,120.4,133.3,120.8,136.7,125.1z"/>
	<path class="st1" d="M228.7,147.3c1.7-1.8,3.7-0.6,5.6-0.7C232.5,147.4,230.5,146.6,228.7,147.3z"/>
	<path class="st1" d="M95.3,157.9c0.2-5.8,2.1-10.8,5-15.4c0.8-1.3,1.4-2.5,1.5-4.1c0-3.3,1.8-5.3,5-5.2c2.3,0.1,4.5,0.9,5.2,3.6
		c0.8,3-0.4,6.2-3.2,6.6c-6.2,0.8-6.6,6-7.8,10c-1.7,5.4-0.3,10.6,4.7,14.3c1.3,1,2.3,1.4,4,0.8c3.1-1.1,5.6,0.3,6.8,3.3
		c1,2.4-0.4,5.5-2.8,6.6c-2.5,1.1-5.7,0.1-7-2.6c-0.7-1.6-1.9-2.4-3.2-3.3C98.3,168.9,95.7,163.9,95.3,157.9z"/>
	<path class="st1" d="M215.1,162.6c0-0.6-0.1-1.2-0.1-1.8c0,0,0-0.1,0-0.1c0-1.5,1.3-2.1,2.1-3c1.3-1.7,1.1-3.4-0.4-4.8
		c-1.4-1.3-3.4-1.2-4.6,0c-1.4,1.2-2,3.6-0.5,4.8c1.9,1.6,2.2,3.4,2.3,5.4c0,1.2,0.8,1.9,1.3,2.8c0,0.2,0,0.5,0.3,0.3
		c0.8,0.7,1,1.6,1,2.6c0,0.5,0,0.9,0,1.4c0,1.4,0.6,2.9-0.7,4.1c-9.9,0-19.8-0.1-29.8-0.1c-1.4-3.9-1.1-4.2,3-4.4
		c2.7-0.1,5.2-0.1,7.8-1.9c1.8-1.2,4.9-1.9,7.1,0.9c1.4,1.9,3.3,1.7,5,0.3c1.6-1.4,1.6-3.2,0.4-4.8c-1.4-1.7-3.1-2.2-4.9-0.4
		c-1.4,1.4-3.1,2-5.1,2c-1.5,0-2.8,0.5-4.1,1.3c-2.5,1.6-5.5,1.5-8.3,0.9c-2.5-0.5-1.4-2.9-1.4-4.5c-0.1-1.5,0.4-2.6,2.3-2.6
		c4,0,8,0,12-0.1c3.8-0.1,6.7-2.8,7.2-6.5c0.4-3.4,3.3-5.8,6.7-5.8c4.3,0,4.5-0.2,4.6-4.4c0-1.3,0-2.5,0-3.8
		c0.1-1.2-0.5-2.8,1.1-3.3c1.5-0.4,3.2-0.5,4.2,1.2c-1.1,0.7-0.8,1.7-0.6,2.7c0.3,2.9,0.3,5.9,0,8.8c-0.4,5.1-0.3,10.3,0,15.4
		c-0.1,3,0.8,6.1-0.6,9c-1.4,0.3-2.6-0.5-3.9-0.7c0-0.9-0.1-1.8-0.1-2.6c0.5-0.9,0.4-1.8,0-2.7C217.3,166.1,215.7,164.7,215.1,162.6
		C215.1,162.7,215.1,162.6,215.1,162.6z"/>
	<path class="st1" d="M193.8,159.3c-1.5,0-3,0-4.4,0c-3.7,0.1-5.5-3-4-6.5c0.5-1.1,1.3-1,2.1-0.9c2.7,0.3,3.6-1.1,3.4-3.5
		c0-0.7,0.1-1.5,0-2.2c-0.2-2.1,0.8-2.9,2.8-2.9c1.2,0,2.3-0.1,3.5-0.1c2.5,0.2,3.4-1,3.2-3.4c-0.1-1.2-0.7-2.9,1.2-3.1
		c1.9-0.3,4.3-1,5.8,0.5c1.1,1.1,1,3.5-0.3,4.7c-2.8,2.7-4.5,7-9.6,6.8c-1.7-0.1-3.1,1.7-2.8,3.6c0.3,1.8,1.3,3.4,3.6,3.3
		c2.1-0.1,3.6-1.2,3.4-3.3c-0.3-2.5,1.1-3.8,2.6-5.3c2.5-2.5,5.8-4.6,4.9-8.9c-0.1-0.5,0.3-1.1,0.9-1.2c2-0.4,4.1-0.7,5.9,0.1
		c1.4,0.6,0.7,2.5,0.8,3.8c0,0.4,0,0.8,0,1.3c-0.2,4.9-0.2,4.9-5.2,5.1c-1.9,0.1-5.8,3.8-6,5.7c-0.7,5-1.9,6.1-6.8,6.2
		c-1.6,0-3.2,0-4.8,0C193.8,159.2,193.8,159.3,193.8,159.3z"/>
	<path class="st1" d="M185.3,143.3c0.2-6.6,0.2-6.6,6.9-6.6c1.1,0,2.1-0.1,3.2,0c1.6,0.1,3.5-0.6,3.5,2.3c0,2.4-0.7,3.2-3.3,3.3
		c-5.7,0-5.7,0.2-6,6.1c-0.1,1.4-0.4,2.2-1.9,2.2c-1.6,0.1-2.3-0.6-2.4-2.2C185.3,146.6,185.3,145,185.3,143.3z"/>
	<path class="st1" d="M186,174.1c9.9,0,19.8,0.1,29.8,0.1c-6.8,0.9-13.6,0.3-20.4,0.4C192.2,174.5,189,175.2,186,174.1z"/>
	<path class="st1" d="M222.9,165c-0.3-5.1-0.4-10.3,0-15.4C223.2,154.7,223.3,159.9,222.9,165z"/>
	<path class="st1" d="M200.4,152.1c-0.3,1.3-1.1,2.1-2.3,2.1c-1.1,0-2-0.7-2.1-1.9c-0.1-1.3,0.8-2.3,2.1-2.3
		C199.2,150,200.1,150.8,200.4,152.1z"/>
	<path class="st1" d="M214.1,157.6c-1.3-0.1-1.8-0.9-1.8-2.1c0-1.3,0.8-2.1,2.1-2.1c1.3,0,1.8,0.9,1.8,2.1
		C216.3,157,215.4,157.5,214.1,157.6z"/>
	<path class="st1" d="M208.6,166.4c-0.1,1.3-0.9,1.9-2,2c-1.4,0.1-2.2-0.7-2.2-2.1c0-1.4,1-1.8,2.1-1.8
		C207.8,164.5,208.5,165.2,208.6,166.4z"/>
	<path class="st1" d="M218.3,173.3c1.3,0.2,2.5,1.1,3.9,0.7C219.9,175.5,219.7,175.4,218.3,173.3z"/>
	<path class="st1" d="M222.8,140.7c-0.3-1-0.5-2,0.6-2.7C223.2,139,223,139.9,222.8,140.7z"/>
	<path class="st1" d="M218.2,167.9c0.4,0.9,0.5,1.8,0,2.7C217.9,169.8,217.9,168.9,218.2,167.9z"/>
	<path class="st1" d="M216.5,170.1c0-0.5,0-0.9,0-1.4C216.7,169.2,216.8,169.6,216.5,170.1z"/>
	<path class="st1" d="M215.5,166.1c-0.3,0.2-0.3,0-0.3-0.3c0,0,0.3,0,0.3,0L215.5,166.1z"/>
	<path class="st1" d="M215.1,162.6C215.1,162.6,215.1,162.7,215.1,162.6C215.1,162.7,215.1,162.6,215.1,162.6z"/>
	<path class="st1" d="M215,160.7C215,160.7,215,160.8,215,160.7C215,160.8,215,160.7,215,160.7z"/>
</g>
<g>
	<g>
		<path class="st0" d="M311.7,81.3h123V113h-77v23.6h71.4v30.3h-71.4v29.3h79.2v33.6H311.7V81.3z"/>
	</g>
	<g>
		<path class="st0" d="M461.9,81.3h42.9l55.9,82.2V81.3h43.3v148.5h-43.3l-55.6-81.5v81.5h-43.2V81.3z"/>
	</g>
	<g>
		<path class="st0" d="M634.3,81.3h123V113h-77v23.6h71.4v30.3h-71.4v29.3h79.2v33.6H634.3V81.3z"/>
	</g>
	<g>
		<path class="st0" d="M784.9,229.8V81.3h76.5c14.2,0,25,1.2,32.5,3.6c7.5,2.4,13.5,6.9,18.1,13.5c4.6,6.6,6.9,14.6,6.9,24.1
			c0,8.2-1.8,15.3-5.3,21.3s-8.3,10.8-14.5,14.5c-3.9,2.4-9.3,4.3-16.1,5.9c5.5,1.8,9.4,3.7,11.9,5.5c1.7,1.2,4.1,3.8,7.3,7.8
			c3.2,4,5.3,7.1,6.4,9.2l22.2,43h-51.9l-24.5-45.4c-3.1-5.9-5.9-9.7-8.3-11.4c-3.3-2.3-7.1-3.4-11.2-3.4H831v60.3H784.9z
			 M831,141.5h19.3c2.1,0,6.1-0.7,12.2-2c3-0.6,5.5-2.2,7.4-4.7c1.9-2.5,2.9-5.4,2.9-8.6c0-4.8-1.5-8.5-4.6-11
			c-3-2.6-8.7-3.8-17.1-3.8H831V141.5z"/>
	</g>
	<g>
		<path class="st0" d="M1016.6,176v-30.9h70.9v63.3c-13.6,9.3-25.6,15.6-36,18.9c-10.4,3.3-22.8,5-37.1,5c-17.6,0-32-3-43.1-9
			c-11.1-6-19.7-15-25.8-26.8c-6.1-11.9-9.2-25.5-9.2-40.9c0-16.2,3.3-30.3,10-42.3c6.7-12,16.5-21.1,29.4-27.3
			c10.1-4.8,23.6-7.2,40.6-7.2c16.4,0,28.7,1.5,36.8,4.5c8.1,3,14.9,7.6,20.3,13.8c5.4,6.2,9.4,14.2,12.1,23.8l-44.3,7.9
			c-1.8-5.6-4.9-9.9-9.3-12.9c-4.4-3-9.9-4.5-16.7-4.5c-10.1,0-18.1,3.5-24.1,10.5c-6,7-9,18-9,33.2c0,16.1,3,27.6,9.1,34.4
			c6,6.9,14.5,10.3,25.3,10.3c5.1,0,10-0.7,14.7-2.2c4.7-1.5,10-4,16-7.6v-14H1016.6z"/>
	</g>
</g>
<g>
	<polygon class="st0" points="1192.8,80 1133.2,80 1110.1,157 1149.9,155.6 1121.5,231.1 1183.7,138.9 1146.1,140.4 	"/>
</g>
<text transform="matrix(1 0 0 1 57.2917 416.1867)" class="st2 st3">Modelname</text>
<g>
	<text transform="matrix(1 0 0 1 467.8134 1444.6443)" class="st2 st3">XYZ</text>
	<text transform="matrix(1 0 0 1 718.3196 1445.9128)" class="st4 st5">Ws/sample</text>
</g>
<g>
	<g>
		<text transform="matrix(1 0 0 1 645.7915 2250.1279)" class="st2 st6">XYZ</text>
		<text transform="matrix(1 0 0 1 831.1289 2251.0664)" class="st4 st7">[%]</text>
	</g>
	<text transform="matrix(1 0 0 1 581.4102 2313.3037)" class="st4 st7">Top-1 Accuracy</text>
</g>
<g>
	<g>
		<text transform="matrix(1 0 0 1 146.569 2003.7733)" class="st2 st6">XYZ</text>
		<text transform="matrix(1 0 0 1 331.9064 2004.7118)" class="st4 st7">ms</text>
	</g>
	<text transform="matrix(1 0 0 1 61.6603 2066.949)" class="st4 st7">Runtime / sample</text>
</g>
<g>
	<text transform="matrix(1 0 0 1 1001.8538 2003.7733)" class="st2 st6">XYZ</text>
	<text transform="matrix(1 0 0 1 1187.1912 2004.7118)" class="st4 st7">Parameters</text>
</g>
<text transform="matrix(1 0 0 1 1101.908 2066.949)" class="st4 st7">Model Size</text>
<text transform="matrix(1 0 0 1 1155.3304 416.1867)" class="st4 st3">Dataset</text>
<line class="st8" x1="63.8" y1="436.2" x2="1484.4" y2="436.2"/>
<line class="st8" x1="63.8" y1="1338.9" x2="1484.4" y2="1338.9"/>
<line class="st8" x1="57.3" y1="1478.9" x2="1477.9" y2="1478.9"/>
<g>
	<g>
		<polygon class="st9" points="103.7,580.6 118.1,580.6 110.9,557 		"/>
		<path class="st9" d="M359.3,504.5h-302v136.6h302l59.4-68.3L359.3,504.5z M125.6,605.6l-3.3-10.8h-23l-3.2,10.8H75.4l24.7-65.7
			h22.1l24.7,65.7H125.6z"/>
	</g>
	<g>
		<path class="st10" d="M120.2,740.3c-1.4-1.2-3.9-1.8-7.5-1.8h-10.3v13.3h10.4c3.5,0,6-0.6,7.4-1.9c1.4-1.2,2.2-2.9,2.2-5
			C122.4,743.1,121.7,741.5,120.2,740.3z"/>
		<path class="st10" d="M117.9,724.4c1.2-1.1,1.9-2.7,1.9-4.7c0-1.9-0.6-3.4-1.9-4.5c-1.2-1.1-3.4-1.6-6.5-1.6h-9v12.5h8.8
			C114.5,726.1,116.7,725.5,117.9,724.4z"/>
		<path class="st10" d="M439.3,664.8H260H137.3h-80v136.6h80H260h179.3l59.4-68.3L439.3,664.8z M140.3,756.5
			c-1.6,2.7-3.7,4.9-6.5,6.5c-1.7,1-4.3,1.7-7.7,2.2c-4.6,0.6-7.6,0.9-9.1,0.9H82v-65.7h38c6.3,0,11.2,1.6,14.6,4.7
			c3.4,3.1,5.1,7,5.1,11.7c0,3.9-1.2,7.2-3.6,10c-1.6,1.9-4,3.3-7.1,4.4c4.7,1.1,8.2,3.1,10.4,5.8c2.2,2.8,3.3,6.2,3.3,10.4
			C142.7,750.7,141.9,753.8,140.3,756.5z"/>
	</g>
	<path class="st11" d="M519.3,825.2h-269h-33h-160v136.6h160h33h269l59.4-68.3L519.3,825.2z M137.8,917.3c-2.6,3.3-5.8,5.9-9.6,7.6
		c-3.8,1.7-8.7,2.6-14.5,2.6c-7.1,0-13-1-17.5-3.1c-4.5-2.1-8.4-5.7-11.7-10.9c-3.3-5.2-4.9-11.9-4.9-20.1c0-10.9,2.9-19.2,8.7-25.1
		c5.8-5.8,14-8.8,24.5-8.8c8.3,0,14.8,1.7,19.5,5c4.7,3.3,8.3,8.5,10.6,15.4l-17.9,4c-0.6-2-1.3-3.5-2-4.4c-1.1-1.6-2.5-2.7-4.2-3.6
		c-1.6-0.8-3.5-1.3-5.5-1.3c-4.6,0-8.1,1.9-10.6,5.6c-1.9,2.7-2.8,7.1-2.8,12.9c0,7.3,1.1,12.3,3.3,15c2.2,2.7,5.3,4.1,9.3,4.1
		c3.9,0,6.8-1.1,8.8-3.3c2-2.2,3.4-5.3,4.3-9.5l17.8,5.4C142.3,909.8,140.4,914,137.8,917.3z"/>
	<g>
		<path class="st12" d="M599.3,985.6H349h-51.7h-240v136.6h240H349h250.3l59.4-68.3L599.3,985.6z M140.3,1070
			c-1.6,3.9-3.8,7.1-6.7,9.7c-2.8,2.6-5.9,4.4-9.1,5.2c-4.5,1.2-8.5,1.8-12.1,1.8H82.2V1021h30.2c5.9,0,10.7,0.8,14.4,2.4
			c3.7,1.6,6.7,3.9,9.1,6.9c2.4,3,4.1,6.5,5.2,10.5c1.1,4,1.6,8.2,1.6,12.7C142.7,1060.7,141.9,1066.1,140.3,1070z"/>
		<path class="st12" d="M107.6,1035.9h-5.1v35.9h5c4.2,0,7.3-0.5,9.1-1.4s3.2-2.6,4.2-4.9c1-2.3,1.5-6.1,1.5-11.4
			c0-7-1.1-11.7-3.4-14.3C116.6,1037.2,112.8,1035.9,107.6,1035.9z"/>
	</g>
	<path class="st13" d="M679.3,1145.9H455.7h-78.4h-320v136.6h320h78.4h223.7l59.4-68.3L679.3,1145.9z M137.3,1247.1H81.9v-65.7h54.4
		v14h-34.1v10.4h31.6v13.4h-31.6v13h35V1247.1z"/>
</g>
<polygon class="st14" points="1114.1,817.2 1485.7,817.2 1485.7,649.1 1114.1,649.1 1040.9,733.1 "/>
<text transform="matrix(1 0 0 1 1354.9167 785.9006)" class="st1 st2 st15">B</text>
<g id="g1255_1_" transform="matrix(0.09765625,0,0,0.09765625,-1.50737,205.98698)">
	<g id="g1153_1_">
		<g id="g1151_1_">
			<path id="MEM_L1" class="st1" d="M10166.6,11101.8h-114c-8.2,0-14.9-6.7-14.9-14.9v-975.2c0-8.2,6.7-14.9,14.9-14.9h113.8
				c11.4,0,20.7-9.2,20.7-20.7c0-11.4-9.2-20.7-20.7-20.7h-113.8c-31,0-56.2,25.2-56.2,56.2v975.2c0,31,25.2,56.2,56.2,56.2h114
				c11.4,0,20.7-9.2,20.7-20.7C10187.2,11111,10178,11101.8,10166.6,11101.8z"/>
		</g>
	</g>
	<g id="g1159_1_">
		<g id="g1157_1_">
			<path id="MEM_L2" class="st1" d="M10396.3,10055.5h-124.7c-11.4,0-20.7,9.2-20.7,20.7c0,11.4,9.2,20.7,20.7,20.7h124.7
				c8.2,0,14.9,6.7,14.9,14.9v975.2c0,8.2-6.7,14.9-14.9,14.9h-124.5c-11.4,0-20.7,9.2-20.7,20.7s9.2,20.7,20.7,20.7h124.5
				c31,0,56.2-25.2,56.2-56.2v-975.2C10452.5,10080.7,10427.3,10055.5,10396.3,10055.5z"/>
		</g>
	</g>
	<g id="g1165_1_">
		<g id="g1163_1_">
			<path id="MEM_L3" class="st1" d="M10765.9,10434.2c33.9,0,61.5-27.6,61.5-61.5v-54.7c0-33.9-27.6-61.5-61.5-61.5h-131.6v-76.3
				h131.6l0,0c33.9,0,61.5-27.6,61.5-61.5v-54.7c0-33.9-27.6-61.5-61.5-61.5h-131.6v-48.9c0-44.2-35.9-80.1-80.1-80.1h-659.7
				c-44.2,0-80.1,35.9-80.1,80.1v48.9h-131.6c-33.9,0-61.5,27.6-61.5,61.5v54.7c0,33.9,27.6,61.5,61.5,61.5h131.6v76.3h-131.6
				c-33.9,0-61.5,27.6-61.5,61.5v54.7c0,33.9,27.6,61.5,61.5,61.5h131.6v76.3h-131.6c-33.9,0-61.5,27.6-61.5,61.5v54.7
				c0,33.9,27.6,61.5,61.5,61.5h131.6v76.3h-131.6c-33.9,0-61.5,27.6-61.5,61.5v54.7c0,33.9,27.6,61.5,61.5,61.5h131.6v76.3h-131.6
				c-33.9,0-61.5,27.6-61.5,61.5v54.7c0,33.9,27.6,61.5,61.5,61.5h131.6v48.9c0,44.2,35.9,80.1,80.1,80.1h659.7
				c44.2,0,80.1-35.9,80.1-80.1v-48.9h131.6c33.9,0,61.5-27.6,61.5-61.5v-54.7c0-33.9-27.6-61.5-61.5-61.5h-131.6v-76.3h131.6
				c33.9,0,61.5-27.6,61.5-61.5v-54.7c0-33.9-27.6-61.5-61.5-61.5h-131.6v-76.3h131.6c33.9,0,61.5-27.6,61.5-61.5v-54.7
				c0-33.9-27.6-61.5-61.5-61.5h-131.6v-76.3H10765.9z M10634.3,10043.9h131.6c11.1,0,20.2,9,20.2,20.2v54.7
				c0,11.1-9,20.2-20.2,20.2h-131.6V10043.9z M10634.3,10297.8h131.6c11.1,0,20.2,9,20.2,20.2v54.7c0,11.1-9,20.2-20.2,20.2h-131.6
				V10297.8z M9814.5,11154.6h-131.6c-11.1,0-20.2-9-20.2-20.2v-54.7c0-11.1,9-20.2,20.2-20.2h131.6V11154.6L9814.5,11154.6z
				 M9814.5,10900.7h-131.6c-11.1,0-20.2-9-20.2-20.2v-54.7c0-11.1,9-20.2,20.2-20.2h131.6V10900.7L9814.5,10900.7z M9814.5,10646.8
				h-131.6c-11.1,0-20.2-9-20.2-20.2v-54.7c0-11.1,9-20.2,20.2-20.2h131.6V10646.8L9814.5,10646.8z M9814.5,10392.9h-131.6
				c-11.1,0-20.2-9-20.2-20.2v-54.7c0-11.1,9-20.2,20.2-20.2h131.6V10392.9L9814.5,10392.9z M9814.5,10138.9h-131.6
				c-11.1,0-20.2-9-20.2-20.2v-54.7c0-11.1,9-20.2,20.2-20.2h131.6V10138.9L9814.5,10138.9z M10593,11244.8
				c0,21.4-17.4,38.8-38.8,38.8h-659.7c-21.4,0-38.8-17.4-38.8-38.8v-69.6V11039v-117.6V10785v-117.6v-136.3v-117.6v-136.3v-117.6
				v-136.3v-69.6c0-21.4,17.4-38.8,38.8-38.8h659.7c21.4,0,38.8,17.4,38.8,38.8V11244.8z M10765.9,11059.6c11.1,0,20.2,9,20.2,20.2
				v54.7c0,11.1-9,20.2-20.2,20.2h-131.6v-95L10765.9,11059.6L10765.9,11059.6z M10765.9,10805.7c11.1,0,20.2,9,20.2,20.2v54.7
				c0,11.1-9,20.2-20.2,20.2h-131.6v-95L10765.9,10805.7L10765.9,10805.7z M10765.9,10551.8c11.1,0,20.2,9,20.2,20.2v54.7
				c0,11.1-9,20.2-20.2,20.2h-131.6v-95L10765.9,10551.8L10765.9,10551.8z"/>
		</g>
	</g>
	<g id="g1171_1_">
		<g id="g1169_1_">
			<path id="MEM_L4" class="st1" d="M10314.8,10741.5c4.8-1.2,8.2-5.6,8.2-10.5v-16.1c0-7.4-7.2-12.7-14.3-10.3
				c-22,7.3-47.8,15.6-77.2,24.9c-2-4.5-4.4-8.4-7.4-11.7s-5.9-5.8-9-7.6c-3-1.8-6.6-3.1-10.5-4.2c-4-1-7.5-1.7-10.6-1.9
				c-3.1-0.3-6.6-0.4-10.5-0.4c-9,0-16.8,1.4-23.3,4.2c-6.5,2.8-11.6,6.9-15.5,12.3c-3.8,5.4-6.6,11.7-8.4,18.9
				c-1.8,7.2-2.7,15.5-2.7,25v30.8c0,6,4.9,10.9,10.9,10.9h167.6c6,0,10.9-4.9,10.9-10.9v-16.6c0-6-4.9-10.9-10.9-10.9h-76.3v-6.3
				L10314.8,10741.5z M10212.5,10767.4h-50.7v-12.7c0-2.7,0.9-4.9,2.8-6.8c1.9-1.9,4.2-3.2,7.2-4c2.9-0.8,5.6-1.4,7.9-1.7
				s4.7-0.5,6.9-0.5s4.6,0.2,7.2,0.6c2.5,0.4,5.3,1.1,8.3,2s5.5,2.5,7.5,4.6s2.9,4.6,2.9,7.6L10212.5,10767.4L10212.5,10767.4z"/>
		</g>
	</g>
	<g id="g1177_1_">
		<g id="g1175-3_1_">
			<path id="MEM_L5" class="st1" d="M10315.8,10606.5c4.2-0.8,7.2-4.5,7.2-8.7v-19.4c0-5.7-5.2-9.9-10.8-8.7l-171.6,37
				c-4.1,0.9-7,4.5-7,8.7v19.5c0,4.2,2.9,7.8,7,8.7l171.6,37.1c5.5,1.2,10.8-3,10.8-8.7v-19.6c0-4.3-3.1-8-7.3-8.7l-33.2-6v-24.7
				L10315.8,10606.5z M10258.9,10634.9l-70.3-10l70.3-9.6V10634.9z"/>
		</g>
	</g>
	<g id="g1183-6_1_">
		<g id="g1181_1_">
			<path id="MEM_L6" class="st1" d="M10316.5,10511.7l-127.5-0.8l128.5-22.3c3.2-0.5,5.5-3.3,5.5-6.5v-17.4c0-3.2-2.3-6-5.5-6.5
				c-13.8-2.2-34.2-5.6-61-10.2c-30.7-5.3-52.9-8.9-66.6-11l126.6-0.8c3.6,0,6.5-3,6.5-6.6v-15.1c0-3.6-2.9-6.6-6.6-6.6h-176.1
				c-3.6,0-6.6,2.9-6.6,6.6v32.2c0,3.2,2.3,5.9,5.5,6.5l120.8,20.8l-120.7,19.3c-3.2,0.5-5.5,3.3-5.5,6.5v33.7
				c0,3.6,2.9,6.6,6.6,6.6h176.2c3.6,0,6.6-2.9,6.6-6.6v-15.2C10323,10514.7,10320.1,10511.7,10316.5,10511.7z"/>
		</g>
	</g>
	<g id="g1185_1_">
	</g>
	<g id="g1187_1_">
	</g>
	<g id="g1189_1_">
	</g>
	<g id="g1191_1_">
	</g>
	<g id="g1193_1_">
	</g>
	<g id="g1195_1_">
	</g>
	<g id="g1197_1_">
	</g>
	<g id="g1199_1_">
	</g>
	<g id="g1201_1_">
	</g>
	<g id="g1203_1_">
	</g>
	<g id="g1205_1_">
	</g>
	<g id="g1207_1_">
	</g>
	<g id="g1209_1_">
	</g>
	<g id="g1211_1_">
	</g>
	<g id="g1213_1_">
	</g>
</g>
<g id="g1546_1_" transform="matrix(0.83333333,0,0,0.83333333,-1.50737,122.97543)">
	<g id="g1472_1_">
		<path id="ENE_L1" class="st1" d="M1579.8,1280.2h-18.5v-11.3h-34v11.3h-18.5c-5.4,0-9.8,4.4-9.8,9.8v139.1c0,5.4,4.4,9.8,9.8,9.8
			h71.1c5.4,0,9.8-4.4,9.8-9.8V1290C1589.6,1284.6,1585.2,1280.2,1579.8,1280.2z M1532.9,1274.5h22.7v5.7h-22.7V1274.5z
			 M1508.7,1285.9h18.5h34h18.5c2.3,0,4.1,1.9,4.1,4.1v106.4h-79.4V1290C1504.5,1287.7,1506.4,1285.9,1508.7,1285.9z M1583.9,1421.9
			v7.2c0,2.3-1.9,4.1-4.1,4.1h-7.2h-17h-17h-17h-12.9c-0.9,0-1.7-0.3-2.3-0.7c0.6-0.5,1-1.3,1-2.1c0-1.6-1.3-2.8-2.8-2.8v-11.3
			c1.6,0,2.8-1.3,2.8-2.8s-1.3-2.8-2.8-2.8v-8.5h8.5h17h17h17h17h2.8v2.8V1421.9z"/>
		<circle id="ENE_L2" class="st1" cx="1513" cy="1404.9" r="2.8"/>
		<circle id="ENE_L3" class="st1" cx="1521.6" cy="1413.4" r="2.8"/>
		<circle id="ENE_L4" class="st1" cx="1530.1" cy="1404.9" r="2.8"/>
		<circle id="ENE_L5" class="st1" cx="1547.1" cy="1404.9" r="2.8"/>
		<circle id="ENE_L6" class="st1" cx="1538.6" cy="1413.4" r="2.8"/>
		<circle id="ENE_L7" class="st1" cx="1555.6" cy="1413.4" r="2.8"/>
		<circle id="ENE_L8" class="st1" cx="1564.1" cy="1404.9" r="2.8"/>
		<circle id="ENE_L9" class="st1" cx="1581.1" cy="1404.9" r="2.8"/>
		<circle id="ENE_L10" class="st1" cx="1572.6" cy="1413.4" r="2.8"/>
		<circle id="ENE_L11" class="st1" cx="1513" cy="1421.9" r="2.8"/>
		<circle id="ENE_L12" class="st1" cx="1521.6" cy="1430.4" r="2.8"/>
		<circle id="ENE_L13" class="st1" cx="1530.1" cy="1421.9" r="2.8"/>
		<circle id="ENE_L14" class="st1" cx="1547.1" cy="1421.9" r="2.8"/>
		<circle id="ENE_L15" class="st1" cx="1538.6" cy="1430.4" r="2.8"/>
		<circle id="ENE_L16" class="st1" cx="1555.6" cy="1430.4" r="2.8"/>
		<circle id="ENE_L17" class="st1" cx="1564.1" cy="1421.9" r="2.8"/>
		<circle id="ENE_L18" class="st1" cx="1581.1" cy="1421.9" r="2.8"/>
		<circle id="ENE_L19" class="st1" cx="1572.6" cy="1430.4" r="2.8"/>
	</g>
	<g id="g1474_1_">
	</g>
	<g id="g1476_1_">
	</g>
	<g id="g1478_1_">
	</g>
	<g id="g1480_1_">
	</g>
	<g id="g1482_1_">
	</g>
	<g id="g1484_1_">
	</g>
	<g id="g1486_1_">
	</g>
	<g id="g1488_1_">
	</g>
	<g id="g1490_1_">
	</g>
	<g id="g1492_1_">
	</g>
	<g id="g1494_1_">
	</g>
	<g id="g1496_1_">
	</g>
	<g id="g1498_1_">
	</g>
	<g id="g1500_1_">
	</g>
	<g id="g1502_1_">
	</g>
</g>
<g id="g1554_00000006701884300149924940000003459313315116364720_">
</g>
<g id="g1556_00000173128511759184390300000009549652970247213753_">
</g>
<g id="g1558_00000130649034434018699300000000541646492575489942_">
</g>
<g id="g1560_00000098905814885526993110000006902114060012179092_">
</g>
<g id="g1562_00000065032962002978215790000013283340073180989576_">
</g>
<g id="g1564_00000142865900121500006060000001958986696853442741_">
</g>
<g id="g1566_00000082337686589792968080000000171171828354737338_">
</g>
<g id="g1568_00000165954546403201749420000006129127114039810986_">
</g>
<g id="g1570_00000149342673635770404560000014591451335497191859_">
</g>
<g id="g1572_00000067215085971296473210000008899917070845950609_">
</g>
<g id="g1574_00000149365669591388967020000015712230072184709806_">
</g>
<g id="g1576_00000168823746326736353670000007413851131429251972_">
</g>
<g id="g1578_00000054253810111559721760000013247872539594411153_">
</g>
<g id="g1580_00000091719218180809911940000017719672547996601996_">
</g>
<g id="g1582_00000021100794910484922220000009290368817445182091_">
</g>
<g id="g1609_00000006685404715435705170000001581606168371501212_" transform="matrix(0.83333333,0,0,0.83333333,69.98083,165.06273)">
	<g id="g1552_00000140723980624457697500000014008335565917959301_">
		<path id="RUN_L1_00000089554906038552468030000009976756872507406484_" class="st1" d="M910.6,1301.2l-36.7-26.5
			c-1.1-0.8-2.7-0.7-3.7,0.3s-1.1,2.5-0.3,3.7l26.5,36.7c1.7,2.4,4.4,3.9,7.4,4.1c0.3,0,0.5,0,0.8,0c2.7,0,5.2-1.1,7.1-3
			c2.1-2.1,3.2-5,2.9-7.9C914.5,1305.7,913,1303,910.6,1301.2z M907.8,1312.5c-0.9,0.9-2.2,1.4-3.5,1.3s-2.5-0.8-3.2-1.8l-16.2-22.4
			l22.4,16.2c1.1,0.8,1.7,1.9,1.8,3.2C909.2,1310.3,908.7,1311.6,907.8,1312.5z"/>
		<path id="RUN_L2_00000036966965996494768240000000133843624054561933_" class="st1" d="M977.3,1288.4L977.3,1288.4
			C977.3,1288.3,977.3,1288.3,977.3,1288.4c-1.8-6.5-4.3-12.6-7.6-18.3c0-0.1,0-0.1-0.1-0.2c0-0.1-0.1-0.1-0.1-0.1
			c-2.9-4.9-6.3-9.5-10.1-13.6l6.1-6.1l4,4l12-12l-12-12l-12,12l4,4l-6.1,6.1c-4.1-3.8-8.7-7.2-13.6-10.1c-0.1,0-0.1-0.1-0.1-0.1
			c-0.1,0-0.1,0-0.2-0.1c-5.7-3.3-11.8-5.8-18.2-7.6l0,0l0,0c-3.7-1-7.4-1.7-11.3-2.1v-3.3h4.3c3.9,0,7.1-3.2,7.1-7.1
			s-3.2-7.1-7.1-7.1h-25.6c-3.9,0-7.1,3.2-7.1,7.1s3.2,7.1,7.1,7.1h4.3v3.3c-3.9,0.4-7.6,1.1-11.3,2.1l0,0l0,0
			c-6.5,1.7-12.6,4.3-18.2,7.6c-0.1,0-0.1,0-0.2,0.1c-0.1,0-0.1,0.1-0.1,0.1c-4.9,2.9-9.5,6.3-13.6,10.1l-6.1-6.1l4-4l-12-12l-12,12
			l12,12l4-4l6.1,6.1c-3.8,4.1-7.2,8.7-10.1,13.6c0,0.1-0.1,0.1-0.1,0.1c0,0.1,0,0.1-0.1,0.2c-3.3,5.7-5.8,11.8-7.6,18.2l0,0l0,0
			c-1.7,6.3-2.6,12.9-2.6,19.8c0,6.8,0.9,13.5,2.6,19.8l0,0l0,0c1.7,6.5,4.3,12.6,7.6,18.2c0,0.1,0,0.1,0.1,0.2
			c0,0.1,0.1,0.1,0.2,0.2c3.3,5.6,7.3,10.8,11.9,15.5c0,0.1,0.1,0.1,0.1,0.2s0.1,0.1,0.2,0.1c4.6,4.6,9.9,8.6,15.5,11.9
			c0.1,0,0.1,0.1,0.1,0.1c0.1,0,0.2,0.1,0.3,0.1c5.6,3.2,11.7,5.8,18.2,7.5l0,0l0,0c6.3,1.7,12.9,2.6,19.8,2.6s13.5-0.9,19.8-2.6
			l0,0l0,0c6.4-1.7,12.5-4.3,18.2-7.5c0.1,0,0.2-0.1,0.3-0.1s0.1-0.1,0.1-0.1c5.7-3.3,10.9-7.3,15.5-11.9c0.1,0,0.1-0.1,0.2-0.1
			s0.1-0.1,0.1-0.2c4.6-4.6,8.6-9.8,11.9-15.5c0.1-0.1,0.1-0.1,0.2-0.2c0-0.1,0-0.1,0.1-0.2c3.3-5.7,5.8-11.8,7.6-18.2l0,0l0,0
			c1.7-6.3,2.6-12.9,2.6-19.8C980,1301.3,979,1294.7,977.3,1288.4z M969.6,1238l4,4l-4,4l-4-4L969.6,1238z M833.3,1242l4-4l4,4l-4,4
			L833.3,1242z M965.7,1327.8l5.4,1.5c-1.3,4.1-3,8.1-5,11.9l-4.8-2.8c-1.4-0.8-3.1-0.3-3.9,1c-0.8,1.4-0.3,3.1,1,3.9l4.8,2.8
			c-2.3,3.6-4.9,7-7.8,10.2l-3.9-3.9c-1.1-1.1-2.9-1.1-4,0c-1.1,1.1-1.1,2.9,0,4l3.9,3.9c-3.1,2.9-6.6,5.5-10.2,7.8l-2.8-4.8
			c-0.8-1.4-2.5-1.8-3.9-1s-1.8,2.5-1,3.9l2.8,4.8c-3.8,2-7.7,3.7-11.9,5l-1.5-5.4c-0.4-1.5-2-2.4-3.5-2s-2.4,2-2,3.5l1.4,5.4
			c-4.1,0.9-8.4,1.5-12.8,1.7v-5.6c0-1.6-1.3-2.8-2.8-2.8c-1.6,0-2.8,1.3-2.8,2.8v5.6c-4.4-0.2-8.6-0.7-12.8-1.7l1.4-5.4
			c0.4-1.5-0.5-3.1-2-3.5s-3.1,0.5-3.5,2l-1.5,5.4c-4.1-1.3-8.1-3-11.9-5l2.8-4.8c0.8-1.4,0.3-3.1-1-3.9c-1.4-0.8-3.1-0.3-3.9,1
			l-2.8,4.8c-3.6-2.3-7-4.9-10.2-7.8l3.9-3.9c1.1-1.1,1.1-2.9,0-4s-2.9-1.1-4,0l-3.9,3.9c-2.9-3.1-5.5-6.6-7.8-10.2l4.8-2.8
			c1.4-0.8,1.8-2.5,1-3.9s-2.5-1.8-3.9-1l-4.8,2.8c-2-3.8-3.7-7.7-5-11.9l5.4-1.5c1.5-0.4,2.4-2,2-3.5s-2-2.4-3.5-2l-5.4,1.4
			c-0.9-4.1-1.5-8.4-1.7-12.8h5.6c1.6,0,2.8-1.3,2.8-2.8c0-1.6-1.3-2.8-2.8-2.8h-5.6c0.2-4.4,0.7-8.6,1.7-12.8l5.4,1.5
			c0.2,0.1,0.5,0.1,0.7,0.1c1.3,0,2.4-0.8,2.7-2.1c0.4-1.5-0.5-3.1-2-3.5l-5.4-1.5c1.3-4.1,3-8.1,5-11.9l4.8,2.8
			c0.4,0.3,0.9,0.4,1.4,0.4c1,0,1.9-0.5,2.5-1.4c0.8-1.4,0.3-3.1-1-3.9l-4.8-2.8c2.3-3.6,4.9-7,7.8-10.2l3.9,3.9
			c0.6,0.6,1.3,0.8,2,0.8s1.5-0.3,2-0.8c1.1-1.1,1.1-2.9,0-4l-3.9-3.9c3.1-2.9,6.6-5.5,10.2-7.8l2.8,4.8c0.5,0.9,1.5,1.4,2.5,1.4
			c0.5,0,1-0.1,1.4-0.4c1.4-0.8,1.8-2.5,1-3.9l-2.8-4.8c3.8-2,7.7-3.7,11.9-5l1.5,5.4c0.3,1.3,1.5,2.1,2.7,2.1c0.2,0,0.5,0,0.7-0.1
			c1.5-0.4,2.4-2,2-3.5l-1.4-5.4c3.3-0.7,6.7-1.3,10.2-1.5c0.9-0.1,1.7-0.1,2.4-0.2h0.1v5.6c0,1.6,1.3,2.8,2.8,2.8
			c1.6,0,2.8-1.3,2.8-2.8v-5.6h0.1c0.8,0,1.6,0.1,2.4,0.2c3.5,0.3,6.9,0.8,10.2,1.5l-1.4,5.4c-0.4,1.5,0.5,3.1,2,3.5
			c0.2,0.1,0.5,0.1,0.7,0.1c1.3,0,2.4-0.8,2.7-2.1l1.5-5.4c4.1,1.3,8.1,3,11.9,5l-2.8,4.8c-0.8,1.4-0.3,3.1,1,3.9
			c0.4,0.3,0.9,0.4,1.4,0.4c1,0,1.9-0.5,2.5-1.4l2.8-4.8c3.6,2.3,7,4.9,10.2,7.8l-3.9,3.9c-1.1,1.1-1.1,2.9,0,4
			c0.6,0.6,1.3,0.8,2,0.8c0.7,0,1.5-0.3,2-0.8l3.9-3.9c2.9,3.1,5.5,6.6,7.8,10.2l-4.8,2.8c-1.4,0.8-1.8,2.5-1,3.9
			c0.5,0.9,1.5,1.4,2.5,1.4c0.5,0,1-0.1,1.4-0.4l4.8-2.8c2,3.8,3.7,7.7,5,11.9l-5.4,1.5c-1.5,0.4-2.4,2-2,3.5
			c0.3,1.3,1.5,2.1,2.7,2.1c0.2,0,0.5,0,0.7-0.1l5.4-1.5c0.9,4.1,1.5,8.4,1.7,12.8h-5.6c-1.6,0-2.8,1.3-2.8,2.8
			c0,1.6,1.3,2.8,2.8,2.8h5.6c-0.2,4.4-0.7,8.6-1.7,12.8l-5.4-1.4c-1.5-0.4-3.1,0.5-3.5,2S964.1,1327.4,965.7,1327.8z M900.6,1231.7
			v-8.6h-9.9c-0.8,0-1.4-0.6-1.4-1.4s0.6-1.4,1.4-1.4h25.5c0.8,0,1.4,0.6,1.4,1.4s-0.6,1.4-1.4,1.4h-9.9v8.6c-1,0-1.9-0.1-2.8-0.1
			S901.6,1231.6,900.6,1231.7z"/>
	</g>
	<g id="g1554_00000055700254471873476670000018037485777894231735_">
	</g>
	<g id="g1556_00000048482285870903156700000001274848657409203866_">
	</g>
	<g id="g1558_00000167385094482751860660000001106763598582421429_">
	</g>
	<g id="g1560_00000031176516201489596280000011787283359723415205_">
	</g>
	<g id="g1562_00000026159493083391544430000017430290692549988757_">
	</g>
	<g id="g1564_00000181083205582854803470000009348890090965481141_">
	</g>
	<g id="g1566_00000155117476978157687340000004717248975933508271_">
	</g>
	<g id="g1568_00000080918335289253961290000015395945502049316014_">
	</g>
	<g id="g1570_00000031176072452726939820000017962509596985224321_">
	</g>
	<g id="g1572_00000126288890346617154920000001635763028104689296_">
	</g>
	<g id="g1574_00000011008318853831742320000014110423445131188371_">
	</g>
	<g id="g1576_00000174583470535385777480000013617547350200747425_">
	</g>
	<g id="g1578_00000019677207719473197120000008652149691855459006_">
	</g>
	<g id="g1580_00000116197504240433106410000016023376533368055179_">
	</g>
	<g id="g1582_00000078015873525332324220000016825458420129497257_">
	</g>
</g>
<path id="ACC_L_00000107570790115815447400000018316525504562686377_" class="st1" d="M1411.5,1322.6c-39.3,0-71.3-32-71.3-71.3
	s32-71.3,71.3-71.3c8,0,16,1.3,23.5,4l3,1.1l-5.5,5.5c-1.6,1.6-2.4,3.7-2.4,5.9v11.1l-2.7-1c-5.1-1.8-10.5-2.8-15.9-2.8
	c-26.2,0-47.4,21.3-47.4,47.4s21.3,47.4,47.4,47.4c26.1,0,47.4-21.3,47.4-47.4c0-5.6-1-11.1-2.9-16.4l-1-2.7h10.8
	c2.2,0,4.3-0.9,5.9-2.4l0,0l5.7-5.7l1.1,2.9c2.8,7.8,4.3,16,4.3,24.3C1482.7,1290.6,1450.8,1322.6,1411.5,1322.6z M1411.5,1184.1
	c-37.1,0-67.3,30.2-67.3,67.3c0,37.1,30.2,67.3,67.3,67.3s67.3-30.2,67.3-67.3c0-6.8-1-13.5-3-19.9l-1.2,1.2
	c-2.3,2.3-5.4,3.6-8.7,3.6h-5.1c1.5,4.9,2.3,9.9,2.3,15.1c0,28.4-23.1,51.4-51.4,51.4s-51.4-23.1-51.4-51.4
	c0-28.4,23.1-51.4,51.4-51.4c5,0,9.8,0.7,14.6,2.1v-5.5c0-3.3,1.3-6.4,3.6-8.7l1-1C1424.4,1185,1418,1184.1,1411.5,1184.1z
	 M1411.5,1292.4c-22.7,0-41.1-18.4-41.1-41.1s18.4-41.1,41.1-41.1c5.2,0,10.2,1,15,2.8l2.8,1.1l-17.1,17.1h-0.8
	c-11,0.1-19.9,9-19.9,20s9,20,20,20s20-9,20-20c0-0.2,0-0.3,0-0.5v-1.2l16.9-16.9l1.2,2.8c2.1,5,3.2,10.3,3.2,15.8
	C1452.6,1274,1434.1,1292.4,1411.5,1292.4z M1411.5,1214.2c-20.5,0-37.1,16.6-37.1,37.1s16.6,37.1,37.1,37.1s37.1-16.6,37.1-37.1
	c0-3.9-0.6-7.7-1.8-11.4l-11.3,11.3v0.1c0,13.2-10.8,24-24,24c-13.2,0-24-10.8-24-24c0-12.9,10.3-23.5,23-24l11.6-11.6
	C1418.6,1214.7,1415.1,1214.2,1411.5,1214.2z M1412.3,1256.9c-1.9,0-3.7-0.8-5.1-2.2c-2.5-2.7-2.4-7.1,0.3-9.8l28.8-28.8v-20.4
	l18.2-18.2c0.2-0.2,0.4-0.4,0.7-0.6c0,0,0.1-0.1,0.2-0.1c0.2-0.2,0.5-0.3,0.7-0.5l0.2-0.1c0.2-0.1,0.4-0.2,0.6-0.3l0.2-0.1
	c0.3-0.1,0.5-0.2,0.8-0.2h0.2c0.2,0,0.5-0.1,0.7-0.1h0.2c0.3,0,0.5,0,0.8,0h0.1c0.2,0,0.5,0.1,0.7,0.1c0.1,0,0.1,0,0.2,0
	c0.2,0.1,0.5,0.1,0.7,0.2l0.2,0.1c0.2,0.1,0.4,0.2,0.6,0.3l0.2,0.1c0.2,0.1,0.4,0.3,0.7,0.4l0.1,0.1c0.1,0.1,0.3,0.3,0.5,0.4
	c0,0,0.1,0.1,0.2,0.2c0.2,0.2,0.3,0.4,0.5,0.6l0.1,0.1c0.1,0.2,0.3,0.4,0.4,0.6l0.1,0.2c0.1,0.2,0.2,0.5,0.3,0.8v0.1
	c0.1,0.2,0.1,0.5,0.2,0.7v0.2c0,0.3,0.1,0.6,0.1,0.9l0.3,14.6l14.6,0.3c1.2,0,2.3,0.4,3.3,1c0.4,0.3,0.7,0.5,1,0.8
	c0.4,0.4,0.8,0.9,1.1,1.4c0.3,0.5,0.5,1.1,0.7,1.6c0.6,2.2-0.1,4.4-1.7,6.1l-18.2,18.2h-20.4l-28.9,28.9
	C1415.9,1256.1,1414.2,1256.9,1412.3,1256.9z M1440.4,1197.3v20.4l-30,30c-1.2,1.2-1.3,3.1-0.2,4.2c1.1,1.2,3.1,1.2,4.2,0.1
	l30.1-30.1h20.4l17-17c0.8-0.8,0.8-1.8,0.6-2.2c-0.1-0.2-0.1-0.4-0.3-0.6c-0.1-0.2-0.2-0.4-0.4-0.5c-0.1-0.1-0.2-0.2-0.4-0.3
	c-0.4-0.2-0.8-0.4-1.2-0.4l-18.4-0.4l-0.4-18.4c0-0.1,0-0.2,0-0.4v-0.1c0-0.1,0-0.2-0.1-0.3v-0.1c0-0.1-0.1-0.2-0.1-0.2
	c-0.1-0.1-0.1-0.2-0.2-0.3l0,0c-0.1-0.1-0.1-0.1-0.2-0.2s-0.2-0.2-0.3-0.2l0,0c-0.1-0.1-0.2-0.1-0.2-0.1c-0.1-0.1-0.2-0.1-0.3-0.2
	h-0.1c0,0-0.1,0-0.2-0.1c-0.2,0-0.2-0.1-0.3-0.1s-0.2,0-0.4,0c-0.1,0-0.2,0-0.3,0h-0.1c-0.1,0-0.2,0-0.2,0.1
	c-0.2,0.1-0.2,0.1-0.3,0.1h-0.1c-0.1,0.1-0.2,0.1-0.2,0.2c-0.2,0.1-0.3,0.2-0.3,0.3L1440.4,1197.3z"/>
<g id="g1546_00000106139037526931391510000004534717142916263296_" transform="matrix(0.83333333,0,0,0.83333333,-1.50737,122.97543)">
	<g id="g1474_00000008148690313315935040000007970451753974691005_">
	</g>
	<g id="g1476_00000080913219350030144350000006392052768122353049_">
	</g>
	<g id="g1478_00000075151662076672407640000005659682556918272437_">
	</g>
	<g id="g1480_00000030474300835297388360000017772909287998270366_">
	</g>
	<g id="g1482_00000029005681928923903510000017514802546164842370_">
	</g>
	<g id="g1484_00000024720190741955923280000005892543791590986931_">
	</g>
	<g id="g1486_00000173139285189917213180000010247417337426630815_">
	</g>
	<g id="g1488_00000170279265637442322700000012991165763705810081_">
	</g>
	<g id="g1490_00000047059377444679111800000012112122197083467153_">
	</g>
	<g id="g1492_00000117637832460750657030000005394636804817496240_">
	</g>
	<g id="g1494_00000083074717378517935890000009608509195915409052_">
	</g>
	<g id="g1496_00000047772019689008294900000014268985416888783757_">
	</g>
	<g id="g1498_00000057120576285757224300000017469191189102842037_">
	</g>
	<g id="g1500_00000151542790359801659270000012999014907929863098_">
	</g>
	<g id="g1502_00000092427790818350716580000012985166783648391077_">
	</g>
</g>
<g>
	<g>
		<path class="st14" d="M324.3,1799.1c-0.2-4.5-2.5-8.7-6.2-11.5l-57.2-41.3c-1.7-1.2-4.2-1.1-5.8,0.5c-1.6,1.6-1.7,3.9-0.5,5.8
			l41.3,57.2c2.6,3.7,6.9,6.1,11.5,6.4c0.5,0,0.8,0,1.2,0c4.2,0,8.1-1.7,11.1-4.7C323.1,1808.2,324.8,1803.6,324.3,1799.1z
			 M313.7,1805.2c-1.4,1.4-3.4,2.2-5.5,2s-3.9-1.2-5-2.8l-25.3-34.9l34.9,25.3c1.7,1.2,2.6,3,2.8,5
			C315.9,1801.8,315.1,1803.8,313.7,1805.2z"/>
		<path class="st14" d="M410.2,1739.1c0-0.2,0-0.2-0.2-0.3c0-0.2-0.2-0.2-0.2-0.2c-4.5-7.6-9.8-14.8-15.7-21.2l9.5-9.5l6.2,6.2
			l18.7-18.7l-18.7-18.7l-18.7,18.7l6.2,6.2l-9.5,9.5c-6.4-5.9-13.6-11.2-21.2-15.7c-0.2,0-0.2-0.2-0.2-0.2c-0.2,0-0.2,0-0.3-0.2
			c-8.9-5.1-18.4-9-28.4-11.8c-5.8-1.6-11.5-2.6-17.6-3.3v-5.1h6.7c6.1,0,11.1-5,11.1-11.1c0-6.1-5-11.1-11.1-11.1h-39.9
			c-6.1,0-11.1,5-11.1,11.1c0,6.1,5,11.1,11.1,11.1h6.7v5.1c-6.1,0.6-11.8,1.7-17.6,3.3c-10.1,2.6-19.6,6.7-28.4,11.8
			c-0.2,0-0.2,0-0.3,0.2c-0.2,0-0.2,0.2-0.2,0.2c-7.6,4.5-14.8,9.8-21.2,15.7l-9.5-9.5l6.2-6.2l-18.7-18.7l-18.7,18.7l18.7,18.7
			l6.2-6.2l9.5,9.5c-5.9,6.4-11.2,13.6-15.7,21.2c0,0.2-0.2,0.2-0.2,0.2c0,0.2,0,0.2-0.2,0.3c-5.1,8.9-9,18.4-11.8,28.4
			c-2.6,9.8-4.1,20.1-4.1,30.9c0,10.6,1.4,21,4.1,30.9c2.6,10.1,6.7,19.6,11.8,28.4c0,0.2,0,0.2,0.2,0.3c0,0.2,0.2,0.2,0.3,0.3
			c5.1,8.7,11.4,16.8,18.5,24.2c0,0.2,0.2,0.2,0.2,0.3c0,0.2,0.2,0.2,0.3,0.2c7.2,7.2,15.4,13.4,24.2,18.5c0.2,0,0.2,0.2,0.2,0.2
			c0.2,0,0.3,0.2,0.5,0.2c8.7,5,18.2,9,28.4,11.7c9.8,2.6,20.1,4.1,30.9,4.1s21-1.4,30.9-4.1c10-2.6,19.5-6.7,28.4-11.7
			c0.2,0,0.3-0.2,0.5-0.2s0.2-0.2,0.2-0.2c8.9-5.1,17-11.4,24.2-18.5c0.2,0,0.2-0.2,0.3-0.2c0.2,0,0.2-0.2,0.2-0.3
			c7.2-7.2,13.4-15.3,18.5-24.2c0.2-0.2,0.2-0.2,0.3-0.3c0-0.2,0-0.2,0.2-0.3c5.1-8.9,9-18.4,11.8-28.4c2.6-9.8,4.1-20.1,4.1-30.9
			c-0.5-10.6-2-20.9-4.7-30.7C419.3,1757.5,415.4,1748,410.2,1739.1z M410.1,1689.1l6.2,6.2l-6.2,6.2l-6.2-6.2L410.1,1689.1z
			 M203.9,1701.5l-6.2-6.2l6.2-6.2l6.2,6.2L203.9,1701.5z M287.1,1665.9c-1.2,0-2.2-0.9-2.2-2.2c0-1.2,0.9-2.2,2.2-2.2h39.7
			c1.2,0,2.2,0.9,2.2,2.2c0,1.2-0.9,2.2-2.2,2.2h-15.4v13.4c-1.6,0-3-0.2-4.4-0.2c-1.4,0-3,0-4.5,0.2v-13.4H287.1z M407.7,1802.7
			h8.7c-0.3,6.9-1.1,13.4-2.6,20l-8.4-2.2c-2.3-0.6-4.8,0.8-5.5,3.1c-0.6,2.3,1.6,4.8,4.1,5.5l8.4,2.3c-2,6.4-4.7,12.6-7.8,18.5
			l-7.5-4.4c-2.2-1.2-4.8-0.5-6.1,1.6c-1.2,2.2-0.5,4.8,1.6,6.1l7.5,4.4c-3.6,5.6-7.6,10.9-12.2,15.9l-6.1-6.1
			c-1.7-1.7-4.5-1.7-6.2,0c-1.7,1.7-1.7,4.5,0,6.2l6.1,6.1c-4.8,4.5-10.3,8.6-15.9,12.2l-4.4-7.5c-1.2-2.2-3.9-2.8-6.1-1.6
			s-2.8,3.9-1.6,6.1l4.4,7.5c-5.9,3.1-12,5.8-18.5,7.8l-2.3-8.4c-0.6-2.3-3.1-3.7-5.5-3.1c-2.3,0.6-3.7,3.1-3.1,5.5l2.2,8.4
			c-6.4,1.4-13.1,2.3-20,2.6v-8.7c0-2.5-2-4.4-4.4-4.4c-2.5,0-4.4,2-4.4,4.4v8.7c-6.9-0.3-13.4-1.1-20-2.6l2.2-8.4
			c0.6-2.3-0.8-4.8-3.1-5.5c-2.3-0.6-4.8,0.8-5.5,3.1l-2.3,8.4c-6.4-2-12.6-4.7-18.5-7.8l4.4-7.5c1.2-2.2,0.5-4.8-1.6-6.1
			c-2.2-1.2-4.8-0.5-6.1,1.6l-4.4,7.5c-5.6-3.6-10.9-7.6-15.9-12.2l6.1-6.1c1.7-1.7,1.7-4.5,0-6.2c-1.7-1.7-4.5-1.7-6.2,0l-6.1,6.1
			c-4.5-4.8-8.6-10.3-12.2-15.9l7.5-4.4c2.2-1.2,2.8-3.9,1.6-6.1s-3.9-2.8-6.1-1.6l-7.5,4.4c-3.1-5.9-5.8-12-7.8-18.5l8.4-2.3
			c2.3-0.6,3.7-3.1,3.1-5.5c-0.6-2.3-3.1-3.7-5.5-3.1l-8.4,2.2c-1.4-6.4-2.3-13.1-2.6-20h8.7c2.5,0,4.4-2,4.4-4.4
			c0-2.5-2-4.4-4.4-4.4h-8.7c0.3-6.9,1.1-13.4,2.6-20l8.4,2.3c0.3,0.2,0.8,0.2,1.1,0.2c2,0,3.7-1.2,4.2-3.3c0.6-2.3-0.8-4.8-3.1-5.5
			l-8.4-2.3c2-6.4,4.7-12.6,7.8-18.5l7.5,4.4c0.6,0.5,1.4,0.6,2.2,0.6c1.6,0,3-0.8,3.9-2.2c1.2-2.2,0.5-4.8-1.6-6.1l-7.5-4.4
			c3.6-5.6,7.6-10.9,12.2-15.9l6.1,6.1c0.9,0.9,2,1.2,3.1,1.2c1.1,0,2.3-0.5,3.1-1.2c1.7-1.7,1.7-4.5,0-6.2l-6.1-6.1
			c4.8-4.5,10.3-8.6,15.9-12.2l4.4,7.5c0.8,1.4,2.3,2.2,3.9,2.2c0.8,0,1.6-0.2,2.2-0.6c2.2-1.2,2.8-3.9,1.6-6.1l-4.4-7.5
			c5.9-3.1,12-5.8,18.5-7.8l2.3,8.4c0.5,2,2.3,3.3,4.2,3.3c0.3,0,0.8,0,1.1-0.2c2.3-0.6,3.7-3.1,3.1-5.5l-2.2-8.4
			c5.1-1.1,10.4-2,15.9-2.3c1.4-0.2,2.6-0.2,3.7-0.3h0.2v8.7c0,2.5,2,4.4,4.4,4.4c2.5,0,4.4-2,4.4-4.4v-8.7h0.2
			c1.2,0,2.5,0.2,3.7,0.3c5.5,0.5,10.8,1.2,15.9,2.3l-2.2,8.4c-0.6,2.3,0.8,4.8,3.1,5.5c0.3,0.2,0.8,0.2,1.1,0.2
			c2,0,3.7-1.2,4.2-3.3l2.3-8.4c6.4,2,12.6,4.7,18.5,7.8l-4.4,7.5c-1.2,2.2-0.5,4.8,1.6,6.1c0.6,0.5,1.4,0.6,2.2,0.6
			c1.6,0,3-0.8,3.9-2.2l4.4-7.5c5.6,3.6,10.9,7.6,15.9,12.2l-6.1,6.1c-1.7,1.7-1.7,4.5,0,6.2c0.9,0.9,2,1.2,3.1,1.2
			c1.1,0,2.3-0.5,3.1-1.2l6.1-6.1c4.5,4.8,8.6,10.3,12.2,15.9l-7.5,4.4c-2.2,1.2-2.8,3.9-1.6,6.1c0.8,1.4,2.3,2.2,3.9,2.2
			c0.8,0,1.6-0.2,2.2-0.6l7.5-4.4c3.1,5.9,5.8,12,7.8,18.5l-8.4,2.3c-2.3,0.6-3.7,3.1-3.1,5.5c0.5,2,2.3,3.3,4.2,3.3
			c0.3,0,0.8,0,1.1-0.2l8.4-2.3c1.4,6.4,2.3,13.1,2.6,20h-8.7c-2.5,0-4.4,2-4.4,4.4C403.4,1800.8,405.4,1802.7,407.7,1802.7z"/>
	</g>
	<path id="ACC_L" class="st14" d="M775.9,2161.2c-69.4,0-126-56.5-126-126s56.5-126,126-126c14.1,0,28.3,2.3,41.5,7.1l5.3,1.9
		l-9.7,9.7c-2.8,2.8-4.2,6.5-4.2,10.4v19.6l-4.8-1.8c-9-3.2-18.6-4.9-28.1-4.9c-46.3,0-83.8,37.6-83.8,83.8
		c0,46.1,37.6,83.8,83.8,83.8s83.8-37.6,83.8-83.8c0-9.9-1.8-19.6-5.1-29l-1.8-4.8h19.1c3.9,0,7.6-1.6,10.4-4.2l0,0l10.1-10.1
		l1.9,5.1c4.9,13.8,7.6,28.3,7.6,42.9C901.7,2104.6,845.3,2161.2,775.9,2161.2z M775.9,1916.4c-65.6,0-118.9,53.4-118.9,118.9
		c0,65.6,53.4,118.9,118.9,118.9s118.9-53.4,118.9-118.9c0-12-1.8-23.9-5.3-35.2l-2.1,2.1c-4.1,4.1-9.5,6.4-15.4,6.4h-9
		c2.7,8.7,4.1,17.5,4.1,26.7c0,50.2-40.8,90.8-90.8,90.8s-90.8-40.8-90.8-90.8c0-50.2,40.8-90.8,90.8-90.8c8.8,0,17.3,1.2,25.8,3.7
		v-9.7c0-5.8,2.3-11.3,6.4-15.4l1.8-1.8C798.7,1918,787.4,1916.4,775.9,1916.4z M775.9,2107.8c-40.1,0-72.6-32.5-72.6-72.6
		c0-40.1,32.5-72.6,72.6-72.6c9.2,0,18,1.8,26.5,4.9l4.9,1.9l-30.2,30.2h-1.4c-19.4,0.2-35.2,15.9-35.2,35.3
		c0,19.4,15.9,35.3,35.3,35.3s35.3-15.9,35.3-35.3c0-0.4,0-0.5,0-0.9v-2.1l29.9-29.9l2.1,4.9c3.7,8.8,5.7,18.2,5.7,27.9
		C848.5,2075.3,815.8,2107.8,775.9,2107.8z M775.9,1969.6c-36.2,0-65.6,29.3-65.6,65.6s29.3,65.6,65.6,65.6s65.6-29.3,65.6-65.6
		c0-6.9-1.1-13.6-3.2-20.1l-20,20v0.2c0,23.3-19.1,42.4-42.4,42.4c-23.3,0-42.4-19.1-42.4-42.4c0-22.8,18.2-41.5,40.6-42.4
		l20.5-20.5C788.4,1970.5,782.3,1969.6,775.9,1969.6z M777.3,2045.1c-3.4,0-6.5-1.4-9-3.9c-4.4-4.8-4.2-12.5,0.5-17.3l50.9-50.9v-36
		l32.2-32.2c0.4-0.4,0.7-0.7,1.2-1.1c0,0,0.2-0.2,0.4-0.2c0.4-0.4,0.9-0.5,1.2-0.9l0.4-0.2c0.4-0.2,0.7-0.4,1.1-0.5l0.4-0.2
		c0.5-0.2,0.9-0.4,1.4-0.4h0.4c0.4,0,0.9-0.2,1.2-0.2h0.4c0.5,0,0.9,0,1.4,0h0.2c0.4,0,0.9,0.2,1.2,0.2c0.2,0,0.2,0,0.4,0
		c0.4,0.2,0.9,0.2,1.2,0.4l0.4,0.2c0.4,0.2,0.7,0.4,1.1,0.5l0.4,0.2c0.4,0.2,0.7,0.5,1.2,0.7l0.2,0.2c0.2,0.2,0.5,0.5,0.9,0.7
		c0,0,0.2,0.2,0.4,0.4c0.4,0.4,0.5,0.7,0.9,1.1l0.2,0.2c0.2,0.4,0.5,0.7,0.7,1.1l0.2,0.4c0.2,0.4,0.4,0.9,0.5,1.4v0.2
		c0.2,0.4,0.2,0.9,0.4,1.2v0.4c0,0.5,0.2,1.1,0.2,1.6l0.5,25.8l25.8,0.5c2.1,0,4.1,0.7,5.8,1.8c0.7,0.5,1.2,0.9,1.8,1.4
		c0.7,0.7,1.4,1.6,1.9,2.5c0.5,0.9,0.9,1.9,1.2,2.8c1.1,3.9-0.2,7.8-3,10.8l-32.2,32.2h-36l-51.1,51.1
		C783.7,2043.7,780.7,2045.1,777.3,2045.1z M827,1939.8v36l-53,53c-2.1,2.1-2.3,5.5-0.4,7.4c1.9,2.1,5.5,2.1,7.4,0.2l53.2-53.2h36
		l30-30c1.4-1.4,1.4-3.2,1.1-3.9c-0.2-0.4-0.2-0.7-0.5-1.1c-0.2-0.4-0.4-0.7-0.7-0.9c-0.2-0.2-0.4-0.4-0.7-0.5
		c-0.7-0.4-1.4-0.7-2.1-0.7l-32.5-0.7l-0.7-32.5c0-0.2,0-0.4,0-0.7v-0.2c0-0.2,0-0.4-0.2-0.5v-0.2c0-0.2-0.2-0.4-0.2-0.4
		c-0.2-0.2-0.2-0.4-0.4-0.5l0,0c-0.2-0.2-0.2-0.2-0.4-0.4c-0.2-0.2-0.4-0.4-0.5-0.4l0,0c-0.2-0.2-0.4-0.2-0.4-0.2
		c-0.2-0.2-0.4-0.2-0.5-0.4h-0.2c0,0-0.2,0-0.4-0.2c-0.4,0-0.4-0.2-0.5-0.2c-0.2,0-0.4,0-0.7,0c-0.2,0-0.4,0-0.5,0h-0.2
		c-0.2,0-0.4,0-0.4,0.2c-0.4,0.2-0.4,0.2-0.5,0.2h-0.2c-0.2,0.2-0.4,0.2-0.4,0.4c-0.4,0.2-0.5,0.4-0.5,0.5L827,1939.8z"/>
	<g>
		<path class="st14" d="M1343.3,1784.8c-8.8,0-16.5,5.1-20.2,12.6l-6.4-18.2l6.4-18.2c3.7,7.4,11.3,12.6,20.2,12.6
			c12.4,0,22.5-10.1,22.5-22.5c0-12.4-10.1-22.5-22.5-22.5c-9.9,0-18.3,6.4-21.3,15.4l-34.2-48.2c-0.5-11.9-10.4-21.5-22.4-21.5
			c-11.9,0-21.6,9.3-22.4,20.9l-33.6,22.8c-2.3-10-11.2-17.6-21.9-17.6c-12.4,0-22.5,10.1-22.5,22.5c0,12.4,10.1,22.5,22.5,22.5
			c8.5,0,15.9-4.8,19.8-11.8l6.8,24.3l-5.8,12.4c-3.4-8-11.4-13.7-20.7-13.7c-12.4,0-22.5,10.1-22.5,22.5s10.1,22.5,22.5,22.5
			c9.3,0,17.3-5.7,20.7-13.7l5.8,12.4l-6.8,24.3c-3.8-7-11.2-11.8-19.8-11.8c-12.4,0-22.5,10.1-22.5,22.5
			c0,12.4,10.1,22.5,22.5,22.5c10.7,0,19.7-7.5,21.9-17.6l33.6,22.8c0.8,11.7,10.5,20.9,22.4,20.9c12.1,0,21.9-9.6,22.4-21.5
			l34.2-48.2c3,8.9,11.4,15.4,21.3,15.4c12.4,0,22.5-10.1,22.5-22.5S1355.7,1784.8,1343.3,1784.8z M1219.8,1799.9l1.9-6.8l1.3,0.9
			l-3,6.4L1219.8,1799.9z M1220.1,1757.9l3,6.4l-1.3,0.9l-1.9-6.8L1220.1,1757.9z M1302.1,1804.1l-11.8-0.2l13.8-19.8l3.3,4.8
			L1302.1,1804.1z M1311.4,1794.6l6.8,9.8l-10.2-0.2L1311.4,1794.6z M1286.6,1799.4c-3-8.9-11.4-15.3-21.3-15.3
			c-9.3,0-17.2,5.6-20.7,13.6l-8.6-18.6l8.6-18.6c3.4,8,11.4,13.6,20.7,13.6c9.9,0,18.3-6.4,21.3-15.3l14.1,20.3L1286.6,1799.4z
			 M1265.3,1789.8c9.3,0,16.9,7.6,16.9,16.9c0,9.3-7.6,16.9-16.9,16.9s-16.9-7.6-16.9-16.9C1248.4,1797.4,1256,1789.8,1265.3,1789.8
			z M1248.4,1751.7c0-9.3,7.6-16.9,16.9-16.9s16.9,7.6,16.9,16.9s-7.6,16.9-16.9,16.9S1248.4,1761,1248.4,1751.7z M1307.5,1779.2
			l2.2-3.2l1.1,3.2l-1.1,3.2L1307.5,1779.2z M1304.1,1774.3l-13.8-19.8l11.8-0.2l5.3,15.2L1304.1,1774.3z M1308,1754.1l10.2-0.2
			l-6.8,9.8L1308,1754.1z M1306.1,1748.5l-11.9-34.1l24.1,33.9L1306.1,1748.5z M1285.5,1706.6l14.7,42l-12.6,0.2
			c-1.4-11.1-10.9-19.6-22.3-19.6c-10.6,0-19.5,7.4-21.9,17.4l-7.3-5.4l9.4-33.7c3.8,7,11.2,11.8,19.8,11.8
			C1274.2,1719.2,1281.8,1714.1,1285.5,1706.6z M1240.9,1751.6l-9.5,6.8l3.2-11.4L1240.9,1751.6z M1231.4,1737.6l-1.3-1l3.9-8.2
			L1231.4,1737.6z M1229.7,1743.4l-3.8,13.8l-2.7-5.9l4.4-9.5L1229.7,1743.4z M1238.7,1760.1l-5.7,12.4l-2.9-6.3L1238.7,1760.1z
			 M1227.2,1773.4l2.7,5.8l-2.7,5.8l-1.6-5.8L1227.2,1773.4z M1233,1785.9l5.7,12.4l-8.6-6.1L1233,1785.9z M1240.9,1806.7l-6.3,4.7
			l-3.2-11.4L1240.9,1806.7z M1225.9,1801.2l3.8,13.8l-2.1,1.6l-4.4-9.5L1225.9,1801.2z M1231.4,1820.8l2.6,9.2l-3.9-8.2
			L1231.4,1820.8z M1245.6,1850.9l-9.4-33.7l7.3-5.4c2.3,9.9,11.2,17.4,21.9,17.4c11.4,0,20.9-8.6,22.3-19.6l12.6,0.2l-14.7,42
			c-3.7-7.4-11.3-12.6-20.2-12.6C1256.8,1839.1,1249.4,1843.9,1245.6,1850.9z M1306.1,1809.8l12.2,0.2l-24.1,33.9L1306.1,1809.8z
			 M1314.2,1788.8l-0.5-0.7l0.1-0.4L1314.2,1788.8z M1313.7,1770.3l0.5-0.7l-0.4,1.1L1313.7,1770.3z M1343.3,1734.2
			c9.3,0,16.9,7.6,16.9,16.9c0,9.3-7.6,16.9-16.9,16.9s-16.9-7.6-16.9-16.9C1326.4,1741.8,1334,1734.2,1343.3,1734.2z
			 M1265.3,1679.9c9.3,0,16.9,7.6,16.9,16.9c0,9.3-7.6,16.9-16.9,16.9s-16.9-7.6-16.9-16.9C1248.4,1687.4,1256,1679.9,1265.3,1679.9
			z M1187.3,1739.8c-9.3,0-16.9-7.6-16.9-16.9c0-9.3,7.6-16.9,16.9-16.9c9.3,0,16.9,7.6,16.9,16.9
			C1204.2,1732.3,1196.6,1739.8,1187.3,1739.8z M1238.8,1704.8l-13.3,28.4l-13.6-10.1L1238.8,1704.8z M1214.2,1731.8l8.9,6.6
			l-2.9,6.3L1214.2,1731.8z M1216.9,1768.7l-2.8,2l2.1-4.4L1216.9,1768.7z M1187.3,1796.1c-9.3,0-16.9-7.6-16.9-16.9
			s7.6-16.9,16.9-16.9c9.3,0,16.9,7.6,16.9,16.9S1196.6,1796.1,1187.3,1796.1z M1218.5,1774.5l1.3,4.7l-1.3,4.7l-6.6-4.7
			L1218.5,1774.5z M1214.1,1787.6l2.8,2l-0.7,2.5L1214.1,1787.6z M1223,1820l-8.9,6.6l5.9-12.8L1223,1820z M1187.3,1852.3
			c-9.3,0-16.9-7.6-16.9-16.9c0-9.3,7.6-16.9,16.9-16.9c9.3,0,16.9,7.6,16.9,16.9C1204.2,1844.7,1196.6,1852.3,1187.3,1852.3z
			 M1225.5,1825.2l13.3,28.4l-26.9-18.3L1225.5,1825.2z M1265.3,1878.5c-9.3,0-16.9-7.6-16.9-16.9c0-9.3,7.6-16.9,16.9-16.9
			s16.9,7.6,16.9,16.9C1282.2,1870.9,1274.6,1878.5,1265.3,1878.5z M1343.3,1824.2c-9.3,0-16.9-7.6-16.9-16.9s7.6-16.9,16.9-16.9
			s16.9,7.6,16.9,16.9S1352.6,1824.2,1343.3,1824.2z"/>
		<polygon class="st14" points="1373.6,1897.4 1373.5,1897.4 1338.7,1877.4 1346.7,1893.8 1155.1,1893.8 1155.1,1680.2 
			1170.5,1687.7 1150.5,1652.8 1150.5,1652.8 1150.5,1652.8 1150.4,1652.8 1150.4,1652.8 1130.4,1687.7 1145.9,1680.2 
			1145.9,1893.8 1145.9,1899.7 1145.9,1903 1345.7,1903 1338.7,1917.4 1373.5,1897.4 1373.6,1897.4 1373.6,1897.4 		"/>
	</g>
</g>
<g>
	<rect x="1092.1" y="1191.6" class="st1" width="4.9" height="121"/>
	
		<rect x="1147.6" y="1253.9" transform="matrix(-1.836970e-16 1 -1 -1.836970e-16 2461.9043 161.7533)" class="st1" width="4.9" height="115.9"/>
	<g>
		<circle class="st16" cx="1197.7" cy="1233.1" r="10.5"/>
		<circle class="st16" cx="1197.7" cy="1263.1" r="10.5"/>
	</g>
	<g>
		<circle class="st16" cx="1114.3" cy="1218" r="10.5"/>
		<circle class="st16" cx="1114.3" cy="1248.1" r="10.5"/>
		<circle class="st16" cx="1114.3" cy="1278.2" r="10.5"/>
	</g>
	<g>
		<circle class="st16" cx="1156" cy="1204" r="10.5"/>
		<circle class="st16" cx="1156" cy="1233.4" r="10.5"/>
		<circle class="st16" cx="1156" cy="1262.8" r="10.5"/>
		<circle class="st16" cx="1156" cy="1292.2" r="10.5"/>
	</g>
	<polygon class="st17" points="1145.5,1204 1124.8,1218 1145.5,1233.4 1124.8,1218 1145.5,1262.8 1124.8,1218 1145.5,1292.2 
		1124.8,1278.2 1145.5,1262.8 1124.8,1278.2 1145.5,1233.4 1124.8,1278.2 	"/>
	<path class="st17" d="M1124.8,1248.1l20.6-44.1L1124.8,1248.1z"/>
	<polyline class="st17" points="1145.5,1233.4 1124.8,1248.1 1145.5,1262.8 1124.8,1248.1 1145.5,1292.2 	"/>
	<path class="st17" d="M1187.1,1233.1"/>
	<path class="st17" d="M1166.5,1204l20.6,29L1166.5,1204z"/>
	<path class="st17" d="M1187.1,1263.1l-20.6-59.1L1187.1,1263.1z"/>
	<polygon class="st17" points="1187.1,1233.1 1166.5,1233.4 1187.1,1263.1 1166.5,1262.8 	"/>
	<path class="st17" d="M1166.5,1292.2l20.6-59.1L1166.5,1292.2z"/>
	<line class="st17" x1="1187.1" y1="1263.1" x2="1166.5" y2="1292.2"/>
	<polygon class="st1" points="1094.6,1180.6 1094.6,1180.5 1094.6,1180.5 1094.6,1180.5 1094.6,1180.6 1083.9,1199.2 1094.6,1194 
		1105.3,1199.2 	"/>
	<polygon class="st1" points="1213.8,1311.3 1213.9,1311.3 1213.8,1311.3 1213.9,1311.3 1213.8,1311.3 1195.2,1300.6 1200.4,1311.3 
		1195.2,1322 	"/>
</g>
<g>
	<path d="M1331.9,210.7c1.5-0.1,2.9-0.1,4.6-0.2c0-5.1,0-10,0-15.1c-1.5,0-2.8,0-4.5,0c-0.1,1.7-0.2,3.3-0.4,5.1
		c-3.5,0-6.9,0-10.6,0c-0.1-1.8-0.2-3.3-0.2-5.1c-1.5,0-2.9,0-4.6,0c-0.1,1.6-0.2,3.2-0.3,5c-1.5,0.1-3.1,0.3-4.8,0.4
		c0,3.3,0,6.5,0,9.9c-3.9,0-7.5,0-11.2,0c0-1.7,0-3.3,0-5.3c1.7-0.2,3.3-0.3,5.1-0.5c0-3.2,0-6.2,0-9.6c-1.5,0-2.9,0-4.5,0
		c-0.1,1.6-0.2,3.1-0.4,4.8c-1.6,0.2-3.1,0.4-5,0.6c0,3.3,0,6.5,0,9.9c-2.1,0-3.8,0-5.6,0c0-7,0-14,0-21.2c1.5-0.1,3-0.2,4.7-0.4
		c0.2-1.7,0.3-3.2,0.5-5c1.6,0,3.1,0,4.8,0c0-5.1,0-10,0-15.2c-1.6-0.1-3.1-0.3-4.8-0.4c0-1.7,0-3.4,0-5.3c1.5-0.1,3-0.3,4.7-0.5
		c0.1-1.6,0.3-3.1,0.5-4.8c1.6-0.1,3.2-0.2,5-0.2c0.1-1.7,0.2-3.3,0.3-5.1c1.6-0.2,3.1-0.3,4.8-0.5c0.2-1.6,0.3-3.1,0.5-4.8
		c1.8,0,3.4,0,5.3,0c0,1.8,0,3.5,0,5.4c-1.5,0.1-3,0.2-4.6,0.3c-0.2,1.7-0.3,3.2-0.5,5c-1.7,0.2-3.2,0.4-5,0.6c0,1.4,0,2.7,0,4.2
		c3.2,0,6.3,0,9.6,0c0-1.6,0-3.1,0-5c2,0,3.7,0,5.6,0c0-1.9,0-3.4,0-5.2c1.7-0.2,3.3-0.3,5.1-0.5c0-1.4,0-2.7,0-4.1
		c-1.7-0.1-3.2-0.2-5-0.4c0-1.7,0-3.3,0-5.3c-3.5,0-6.8,0-10.3,0c-0.2-1.8-0.3-3.2-0.5-4.9c-3.2,0-6.3,0-9.6,0
		c-0.1,1.5-0.3,2.9-0.4,4.6c-1.6,0.2-3.1,0.3-4.8,0.5c0,1.7,0,3.3,0,5.1c-2,0-3.7,0-5.7,0c0-6.9,0-14,0-21.1c1.8,0,3.5,0,5.6,0
		c0,3.2,0,6.5,0,9.9c1.6,0,2.9,0,4.4,0c0-1.7,0-3.2,0-4.8c1.9-0.1,3.5-0.2,5.4-0.2c0.1-1.6,0.2-3.2,0.3-4.7c0.2-0.2,0.3-0.4,0.5-0.6
		c3.2,0,6.3,0,9.6,0c0-1.5,0-2.8,0-4.4c-1.6-0.1-3.1-0.2-4.7-0.3c-0.2-1.6-0.3-3.1-0.5-4.8c-1.6-0.2-3.1-0.3-4.8-0.5
		c-0.1-1.7-0.2-3.3-0.3-5c-3.5,0-6.8,0-10.3,0c-0.1-1.8-0.2-3.3-0.3-5.1c-1.7-0.2-3.2-0.4-4.8-0.6c0-1.8,0-3.4,0-5.2
		c1.7,0,3.4,0,5.3,0c0.1,1.5,0.3,3,0.5,4.7c3.2,0,6.3,0,9.6,0c0.1-1.5,0.2-3.1,0.4-4.9c10.3,0,20.5,0,31,0c0.1-1.7,0.2-3,0.3-4.6
		c-1.8-0.2-3.3-0.3-5-0.5c0-1.8,0-3.5,0-5.4c1.6-0.1,3.1-0.2,4.8-0.4c0-1.6,0-2.9,0-4.5c-1.6-0.1-3-0.2-4.7-0.4c0-1.8,0-3.4,0-5.5
		c3.2,0,6.4,0,9.8,0c0-1.8,0-3.1,0-4.9c-3.3,0-6.6,0-10,0c0-5.5,0-10.7,0-16c3.5,0,7,0,10.7,0c0.1,1.6,0.2,3.1,0.3,4.9
		c3.3,0,6.3,0,9.6,0c0.2-1.7,0.3-3.2,0.4-4.8c3.5,0,7,0,10.7,0c0.1,1.5,0.3,3,0.4,4.8c1.6,0.1,3.1,0.3,4.8,0.4c0,10.6,0,21.1,0,31.8
		c-1.7,0-3.4,0-5.4,0c-0.1-1.6-0.1-3.1-0.2-4.8c-1.6,0-3,0-4.6,0c-0.1,1.6-0.3,3-0.4,4.6c-1.6,0.2-3,0.3-4.9,0.6
		c0.1,1.5,0.2,3,0.3,4.6c3.6,0,6.8,0,10.2,0c0.1,1.7,0.2,3.2,0.3,4.9c1.6,0.2,3,0.3,4.7,0.5c0.2,1.5,0.3,2.9,0.5,4.6
		c1.5,0,2.9,0,4.5,0c0-3.3,0-6.5,0-9.9c3.7,0,7.2,0,10.9,0c0.1,1.6,0.1,3.1,0.2,4.8c1.5,0,2.9,0,4.5,0c0-3.2,0-6.2,0-9.6
		c-1.6-0.1-3.2-0.2-4.9-0.3c-0.1-1.6-0.3-3.1-0.5-4.8c-1.4,0-2.6,0-4.1,0c-0.2,1.5-0.3,3.1-0.5,4.8c-1.8,0-3.4,0-5.3,0
		c0-1.8,0-3.5,0-5.4c1.5-0.1,3-0.2,4.7-0.3c0-1.6,0-3,0-4.6c-1.5-0.1-3-0.2-4.6-0.4c0-1.8,0-3.5,0-5.4c1.5-0.1,3-0.2,4.7-0.3
		c0-1.5,0-2.9,0-4.6c-1.5-0.1-3-0.2-4.7-0.4c0-1.8,0-3.5,0-5.4c1.5-0.1,3-0.2,4.7-0.3c0-1.4,0-2.7,0-4.2c-1.6-0.2-3.1-0.3-4.8-0.5
		c0-1.8,0-3.5,0-5.3c5.3,0,10.5,0,15.9,0c0.1,1.6,0.3,3.1,0.4,4.7c1.6,0.1,3.1,0.2,4.8,0.4c0.1,1.6,0.2,3.1,0.3,4.9
		c1.5,0,2.9,0,4.6,0c0-3.3,0-6.5,0-9.9c3.8,0,7.2,0,10.8,0c0,1.8,0,3.4,0,5.3c-1.5,0.1-3,0.3-4.9,0.5c0,5.1,0,10.2,0,15.5
		c-3.7,0-7,0-10.4,0c0,1.6,0,2.9,0,4.6c3.4,0,6.7,0,10.1,0c0.2,1.9,0.3,3.4,0.5,5.2c1.4,0,2.7,0,4.2,0c0.2-1.6,0.3-3.1,0.5-5
		c5,0,10,0,15.2,0c0-1.7,0-3,0-4.6c-5,0-10,0-15.2,0c0-3.8,0-7.3,0-11.1c1.7-0.1,3.2-0.3,5-0.4c0.1-1.5,0.3-3,0.4-4.7
		c1.5-0.2,2.9-0.3,4.7-0.5c0.1-1.5,0.2-3,0.4-4.7c3.6,0,7.1,0,10.8,0c0,1.7,0,3.4,0,5.3c-1.7,0.2-3.2,0.3-5,0.5c0,4.9,0,9.8,0,14.8
		c1.5,0,2.8,0,4.5,0c0-3.4,0-6.7,0-10.1c1.8-0.2,3.4-0.3,5.1-0.5c0.2-1.6,0.3-3.1,0.5-4.8c1.8,0,3.4,0,5.3,0c0,1.7,0,3.5,0,5.5
		c-1.5,0.1-3.1,0.2-4.8,0.2c0,1.6,0,2.9,0,4.6c1.7,0,3.3,0,4.8,0c0,3.7,0,7.1,0,10.8c-1.8,0-3.4,0-5.2,0c-0.1-0.7-0.3-1.5-0.3-2.2
		c-0.1-0.8-0.1-1.5-0.2-2.5c-1.5,0-2.7,0-4.2,0c0,4.9,0,9.7,0,14.7c1.4,0,2.6,0,4.2,0c0.1-1.5,0.3-3,0.5-4.7c1.7,0,3.4,0,5.3,0
		c0,1.7,0,3.5,0,5.4c-1.6,0.1-3,0.2-4.7,0.3c0,1.5,0,2.9,0,4.5c3.4,0,6.6,0,10,0c0,1.9,0,3.6,0,5.6c-1.7,0.1-3.3,0.3-5,0.4
		c0,3.2,0,6.3,0,9.6c1.5,0,2.9,0,4.5,0c0.2-1.6,0.3-3.1,0.5-4.9c1.8,0,3.4,0,5.3,0c0,5.2,0,10.4,0,15.8c-1.7,0-3.5,0-5.4,0
		c-0.1-1.6-0.2-3.1-0.3-4.8c-3.3,0-6.3,0-9.6,0c0,1.5,0,2.9,0,4.4c1.7,0.1,3.2,0.1,4.8,0.2c0.1,1.7,0.2,3.2,0.2,5
		c1.7,0.1,3.3,0.2,5.1,0.3c0.1,1.6,0.3,3.1,0.4,4.8c3.2,0,6.3,0,9.8,0c0-3.5,0-6.9,0-10.3c1.9,0,3.4,0,5.1,0c0-1.8,0-3.3,0-5.1
		c1.8-0.1,3.5-0.2,5.4-0.2c0-1.4,0-2.7,0-4.5c-3.4,0-6.8,0-10.3,0c0-5.6,0-10.8,0-16.1c1.8,0,3.4,0,5.4,0c0.1,1.4,0.3,3,0.5,4.7
		c1.5,0,2.9,0,4.5,0c0.1-1.6,0.2-3.1,0.4-4.7c5.3,0,10.4,0,15.7,0c0,1.7,0,3.4,0,5.3c-1.6,0.2-3.1,0.3-4.7,0.5c0,1.3,0,2.6,0,4.1
		c1.6,0.2,3.1,0.4,4.7,0.5c0,5.3,0,10.4,0,15.8c-1.8,0-3.5,0-5.4,0c-0.1-1.5-0.2-3-0.3-4.7c-3.3,0-6.3,0-9.6,0c0,3.1,0,6.2,0,9.6
		c5.1,0,10.2,0,15.4,0c0,2.2,0,3.9,0,5.8c-1.6,0.1-3.1,0.2-4.7,0.3c-0.2,1.6-0.3,3-0.5,4.7c-1.5,0.1-3,0.3-4.7,0.4
		c-0.2,1.6-0.3,3.2-0.5,5c-1.7,0.2-3.2,0.4-5,0.5c0,1.4,0,2.6,0,4.1c1.6,0.2,3.2,0.3,5,0.5c0,1.8,0,3.5,0,5.4
		c-1.7,0.2-3.2,0.4-5.4,0.6c0,3.3,0,6.6,0,9.8c-1.6,0.1-3.1,0.3-4.8,0.4c0,1.6,0,3,0,4.4c1.6,0,3,0,4.6,0c0.1-1.7,0.2-3.2,0.3-4.8
		c1.7,0,3.4,0,5.3,0c0,1.7,0,3.4,0,5.3c-1.7,0.1-3.2,0.2-5,0.4c0,1.4,0,2.7,0,4.2c1.6,0.1,3.3,0.3,5.1,0.4c0.1,1.7,0.2,3.3,0.3,5
		c1.5,0,2.8,0,4.5,0c0-3.5,0-6.8,0-10.3c2.1,0,3.7,0,5.5,0c0,3.5,0,6.9,0,10.6c-1.6,0.1-3.1,0.2-4.9,0.3c0,1.7,0,3.3,0,5.1
		c-1.8,0.2-3.3,0.3-5,0.4c0,1.4,0,2.7,0,4.4c3.3,0,6.5,0,9.9,0c0,5.6,0,10.8,0,16.2c-1.5,0.1-3,0.2-4.8,0.3c0,1.6,0,3,0,4.6
		c1.6,0.1,3.1,0.2,4.7,0.2c0,12.2,0,24.4,0,36.9c-1.7,0-3.4,0-5.3,0c-0.1-1.5-0.3-3-0.4-4.7c-3.2,0-6.3,0-9.6,0
		c-0.1,1.5-0.3,3-0.4,4.7c-1.7,0.1-3.3,0.2-5.2,0.3c-0.2-1.7-0.3-3.2-0.4-4.9c-1.3,0-2.6,0-4.1,0c-0.2,1.6-0.4,3.2-0.6,4.8
		c-3.6,0-7.1,0-10.9,0c0-1.5,0-3.1,0-4.9c-1.7,0-3.1,0-4.7,0c0,1.6,0,3.2,0,4.8c-2,0-3.6,0-5.6,0c0-1.8,0-3.4,0-5.3
		c1.7-0.2,3.3-0.5,5-0.7c0-3.2,0-6.2,0-9.4c-1.5,0-2.9,0-4.6,0c-0.1,1.6-0.2,3.1-0.3,4.9c-1.5,0.2-3.1,0.3-4.8,0.5
		c-0.2,1.6-0.4,3.1-0.6,4.7c-1.8,0-3.4,0-5.3,0c-0.2-1.5-0.4-3-0.6-4.7c-1.3,0-2.6,0-4.2,0c0,3.2,0,6.4,0,9.8c-3.8,0-7.3,0-11,0
		c0-1.7,0-3.3,0-5.3c1.6-0.2,3.2-0.3,5-0.5c0-1.4,0-2.7,0-4.4c-3.4,0-6.7,0-10.1,0c-0.2-1.9-0.3-3.4-0.4-5.4c-5.1,0-10.2,0-15.5,0
		c-0.1-1.9-0.2-3.3-0.2-5c-3.2,0-6.3,0-9.6,0c0,1.5,0,2.9,0,4.5c1.6,0,3.1,0,4.8,0c0,3.6,0,7,0,10.7c-3.6,0-7,0-10.6,0
		c-0.1-1.5-0.2-3-0.3-4.7c-1.7-0.1-3.2-0.3-5-0.4c-0.2-1.7-0.3-3.2-0.5-5c-1.4,0-2.7,0-4.2,0c-0.2,1.7-0.3,3.4-0.4,5
		c-3.6,0-7,0-10.7,0c-0.2-1.7-0.3-3.2-0.5-5.1c-1.3-0.1-2.6-0.1-4.4-0.2c0,3.6,0,6.9,0,10.4c-2,0.2-3.5,0.3-5.2,0.4
		c-0.1,1.6-0.2,3.1-0.3,4.7c-3.5,0-7,0-10.6,0c0-1.7,0-3.4,0-5.5c3.3,0,6.5,0,10.1,0c0-3.6,0-6.8,0-10.3c1.9-0.1,3.5-0.2,5.3-0.3
		c0-1.4,0-2.7,0-4.4c-3.2,0-6.3,0-9.6,0c-0.1,1.5-0.2,3-0.3,4.7c-1.9,0-3.6,0-5.5,0c0-8.8,0-17.5,0-26.1
		C1331.7,210.8,1331.8,210.8,1331.9,210.7z M1415.9,126.5c-0.1-1.6-0.3-3.2-0.4-4.8c-1.6,0-3,0-4.7,0c0.1,1.6,0.1,3,0.2,4.5
		c1.8,0.1,3.3,0.2,4.8,0.4c0,1.7,0,3.3,0,5.3c-1.8,0-3.5,0-5.3,0c-0.2-1.8-0.3-3.3-0.5-5.1c-1.7-0.1-3.2-0.2-4.8-0.2
		c0-1.9,0-3.7,0-5.5c1.7-0.1,3.2-0.2,5-0.3c-0.1-1.6-0.1-2.9-0.2-4.7c-5.3,0-10.3,0-15.4,0c-0.1-1.9-0.2-3.4-0.3-4.9
		c-3.4,0-6.5,0-9.6,0c0,3.3,0,6.4,0,9.5c1.7,0.2,3.2,0.3,5.1,0.5c0,3.4,0,6.8,0,10.1c2,0.2,3.4,0.4,4.9,0.5c0,3.6,0,6.9,0,10.4
		c-1.7,0.2-3.1,0.3-4.6,0.4c0,1.6,0,3,0,4.5c1.7,0.1,3.2,0.2,4.7,0.3c0,3.6,0,7.1,0,10.7c-1.9,0-3.7,0-5.7,0c0-3.5,0-6.7,0-10.1
		c-1.8-0.2-3.3-0.3-4.9-0.5c0-1.9,0-3.5,0-5.3c1.8-0.1,3.3-0.3,4.9-0.4c0-1.6,0-3,0-4.5c-1.7-0.1-3.2-0.2-5.2-0.3
		c0-5.1,0-10.2,0-15.4c-1.9-0.2-3.4-0.4-4.9-0.5c-0.2-1.6-0.4-3.1-0.6-4.7c-1.5,0-2.8,0-4.3,0c0,3.2,0,6.4,0,9.7
		c1.8,0.1,3.3,0.2,5,0.4c0,1.8,0,3.4,0,5.2c-1.8,0.2-3.4,0.3-5.1,0.5c0,1.5,0,2.8,0,4.2c1.7,0.1,3.3,0.3,5.3,0.4
		c0,5.2,0,10.2,0,15.3c1.9,0.2,3.4,0.3,5,0.5c0,1.9,0,3.6,0,5.8c-3.5,0-6.8,0-10.2,0c0,1.7,0,3,0,4.7c3.6,0,6.9,0,10.2,0
		c0.2,2,0.3,3.6,0.4,5.1c1.6,0,2.8,0,4.4,0c0.1-1.8,0.3-3.4,0.4-5c1.8,0,3.5,0,5.3,0c0,3.7,0,7.1,0,10.7c-1.7,0.2-3.1,0.4-4.6,0.5
		c0,1.5,0,2.8,0,4.4c3.4,0,6.5,0,9.9,0c0,2.1,0,3.8,0,5.5c-3.6,0-7.1,0-10.6,0c-0.1-1.7-0.2-3.3-0.2-4.8c-1.7,0-3.1,0-4.6,0
		c-0.1,1.8-0.2,3.3-0.3,4.8c-1.9,0-3.6,0-5.4,0c-0.1-1.7-0.3-3.3-0.4-4.9c-3.3,0-6.3,0-9.6,0c0,1.6,0,2.9,0,4.5
		c1.7,0.1,3.3,0.2,5.1,0.3c0,5.2,0,10.3,0,15.5c1.7,0.1,3.3,0.2,5,0.3c0,1.9,0,3.7,0,5.5c-1.8,0.1-3.3,0.2-4.9,0.2
		c0,3.4,0,6.5,0,9.6c1.6,0,3,0,4.6,0c0-1.8,0-3.3,0-5c5.3,0,10.4,0,15.6,0c0-3.4,0-6.5,0-9.7c-1.5,0-2.8,0-4.1,0
		c-0.2,1.8-0.3,3.3-0.5,4.8c-1.9,0-3.6,0-5.5,0c0-1.8,0-3.5,0-5.4c1.8-0.2,3.4-0.3,5-0.5c0-1.6,0-3,0-4.5c-1.7-0.1-3.2-0.2-5-0.2
		c0-1.8,0-3.5,0-5.4c1.9,0,3.6,0,5.4,0c0.2,1.8,0.5,3.3,0.7,4.9c1.5,0,2.6,0,4,0c0.2-1.7,0.4-3.3,0.6-5c1.9,0,3.5,0,5.2,0
		c0,7.1,0,14.1,0,21.2c-1.7,0.1-3.2,0.2-4.7,0.3c0,5.2,0,10.1,0,15.3c1.7,0,3.3,0,4.8,0c0.1,1.8,0.2,3.3,0.3,4.9c1.7,0,3,0,4.7,0
		c0-8.7,0-17.2,0-25.8c7.3,0,14.3,0,21.3,0c0.1,1.7,0.2,3.3,0.3,5c3.3,0,6.4,0,9.6,0c0-1.6,0-3,0-4.7c-1.7,0-3.3,0-5.1,0
		c0-3.6,0-7,0-10.4c-1.7,0-3,0-4.6,0c-0.1,1.8-0.2,3.5-0.3,5c-1.9,0-3.7,0-5.7,0c0-3.5,0-6.8,0-10.2c-1.7,0-3.1,0-4.6,0
		c-0.2,1.7-0.3,3.1-0.4,4.7c-1.6,0.2-3.1,0.3-4.7,0.5c-0.1,1.8-0.2,3.3-0.3,5.1c-1.9,0-3.7,0-5.4,0c0-3.7,0-7.3,0-11.3
		c3.5,0,6.9,0,10.2,0c0-1.7,0-3,0-4.7c-3.6,0-6.9,0-10.3,0c0-2,0-3.6,0-5.5c1.6-0.1,3.2-0.3,4.8-0.4c0-1.5,0-2.8,0-4.2
		c-1.7-0.2-3.2-0.3-4.8-0.4c0-1.9,0-3.6,0-5.3c3.6,0,7.1,0,10.5,0c0,3.3,0,6.6,0,10.2c2.1-0.1,3.5-0.2,5-0.3
		c0.1-1.8,0.2-3.2,0.3-4.7c1.8-0.1,3.4-0.2,5-0.4c0-3.3,0-6.4,0-9.8c-1.6,0.1-3,0.2-4.4,0.3c-0.1,1.8-0.3,3.2-0.4,4.7
		c-2,0-3.7,0-5.3,0c-0.1-1.5-0.2-3.1-0.3-4.8c-1.7-0.1-3.3-0.2-5-0.3c0-3.6,0-7.1,0-10.8c1.9,0,3.5,0,5.5,0c0,3.5,0,6.8,0,10.1
		c1.8,0,3.1,0,4.8,0c0-3.5,0-6.8,0-10.1c1.8-0.2,3.3-0.3,4.9-0.5c0-1.5,0-2.8,0-4.1c-6.8,0-13.3,0-19.9,0c-0.2,1.8-0.3,3.3-0.5,4.9
		c-1.9,0-3.5,0-5.2,0c0-2,0-3.7,0-5.5c1.7-0.1,3.2-0.3,4.7-0.4c0.2-1.7,0.4-3.2,0.5-4.7c7.1,0,14,0,21,0c0.2,1.7,0.3,3.1,0.5,4.7
		c1.5,0,2.9,0,4.4,0c0.2-1.7,0.4-3.2,0.6-4.8c3.6,0,7,0,10.4,0c0.1,1.5,0.3,3.1,0.4,4.7c1.6,0,2.9,0,4.5,0c0-1.6,0-3,0-4.5
		c-1.7-0.1-3.2-0.2-4.8-0.4c-0.1-1.5-0.2-3-0.4-4.9c-5.3,0-10.3,0-15.6,0c0-2.1,0-3.9,0-5.7c1.8-0.1,3.3-0.2,5-0.3
		c0-3.4,0-6.4,0-9.6c-1.7-0.1-3.2-0.3-5.1-0.4c0-7,0-13.8,0-20.7c-1.7,0-3.1,0-4.5,0c-0.2,1.8-0.3,3.3-0.5,4.9
		c-1.7,0.2-3.3,0.3-5,0.5c0,3.3,0,6.4,0,9.8c1.8,0,3.4,0,5,0c0,3.7,0,7.2,0,10.7C1419.3,126.5,1417.6,126.5,1415.9,126.5z
		 M1358.1,126.5c1.9,0,3.5,0,5.2,0c0,1.8,0,3.5,0,5.3c-1.8,0.2-3.4,0.3-5,0.5c0,3.3,0,6.4,0,9.6c3.3,0,6.4,0,9.6,0
		c0-8.5,0-16.9,0-25.3c-1.7-0.2-3.3-0.4-4.9-0.6c-0.1-1.8-0.2-3.3-0.3-4.9c-1.7,0-3,0-4.6,0c-0.1,1.7-0.2,3.2-0.3,5
		c-1.6,0.1-2.9,0.2-4.5,0.4c-0.2,1.5-0.5,3.1-0.7,4.8c-1.8,0-3.4,0-5.4,0c0-5.2,0-10.1,0-15.2c-3.5,0-6.7,0-10.2,0
		c0,3.5,0,6.7,0,9.9c-1.9,0.1-3.4,0.3-5.1,0.4c0,3.4,0,6.5,0,9.9c1.6,0,2.9,0,4.4,0c0.2-1.9,0.3-3.5,0.4-5.1c1.9,0,3.6,0,5.4,0
		c0,1.9,0,3.7,0,5.5c-1.7,0.1-3.2,0.2-4.8,0.2c0,5.3,0,10.2,0,15.1c1.5,0,2.8,0,4.2,0c0.2-1.7,0.3-3.3,0.5-5c1.9,0,3.6,0,5.4,0
		c0.2,1.9,0.4,3.4,0.6,5c1.5,0,2.8,0,4.4,0c0-3.5,0-6.8,0-10.2c1.9-0.1,3.5-0.2,5.2-0.3C1357.9,129.8,1358,128.3,1358.1,126.5z
		 M1331.8,163.7c-0.1-1.8-0.2-3.3-0.3-5c-3.4,0-6.5,0-9.7,0c0,1.5,0,2.8,0,4.2c1,0,1.8-0.1,2.5,0c0.8,0.1,1.6,0.3,2.3,0.4
		c0,2,0,3.6,0,5.3c-1.7,0.1-3.2,0.2-5.1,0.3c0.1,1.6,0.1,3,0.2,4.5c1.8,0.2,3.2,0.3,4.8,0.5c0,2,0,3.7,0,5.4
		c-1.7,0.1-3.2,0.2-4.8,0.3c0,1.7,0,3,0,4.5c3.4,0,6.5,0,9.8,0c0-1.8,0-3.3,0-4.9c1.9-0.3,3.5-0.5,5-0.8c0.1-1.7,0.2-3.1,0.4-4.6
		c3.8,0,7.2,0,11,0c0,3.5,0,6.9,0,10.5c1.9,0,3.4,0,5.2,0c0,3.6,0,6.9,0,10.5c1.7-0.1,3.1-0.2,4.9-0.4c0-3.5,0-6.6,0-9.9
		c1.8-0.2,3.2-0.3,4.8-0.4c0-1.6,0-3,0-4.5c-1.7-0.2-3.1-0.3-4.7-0.5c-0.1-1.7-0.3-3.1-0.4-4.7c-1.8-0.2-3.3-0.3-5.1-0.5
		c0-3.6,0-7.1,0-10.7c1.7-0.1,3.4-0.3,5.1-0.4c0-1.5,0-2.8,0-4.2c-1.9-0.2-3.5-0.3-5.4-0.5c0-1.8,0-3.3,0-5c-1.6,0-3,0-4.7,0
		c0,5.3,0,10.4,0,15.5c-2,0-3.7,0-5.5,0c-0.2-1.7-0.4-3.2-0.5-5C1338.3,163.7,1335.2,163.7,1331.8,163.7z M1358.2,210.7
		c-0.2-1.8-0.3-3.2-0.4-4.8c-1.8-0.1-3.4-0.2-5-0.3c-0.2-1.7-0.3-3.2-0.5-4.8c-1.5,0-2.8,0-4.1,0c-0.2,1.8-0.3,3.3-0.5,4.8
		c-1.8,0.1-3.3,0.2-5,0.3c-0.1,1.8-0.2,3.3-0.3,4.9c-1.7,0.1-3.2,0.1-4.8,0.2c0,3.4,0,6.5,0,9.7c1.5,0,2.8,0,4.1,0
		c0.2-1.8,0.3-3.3,0.5-4.8c1.8-0.1,3.3-0.2,5-0.3c0.1-1.8,0.1-3.3,0.2-4.8c2,0,3.8,0,5.5,0c0.1,1.7,0.2,3.2,0.4,4.7
		c1.8,0.2,3.2,0.4,4.7,0.6c0,3.6,0,7,0,10.8c-3.3,0-6.5,0-9.9,0c0,1.7,0,3,0,4.4c5.1,0,9.9,0,15,0c0-3.5,0-6.7,0-10.1
		c1.8-0.2,3.3-0.4,5-0.6c0-5,0-9.8,0-14.7c-1.5,0-2.8,0-4.2,0c-0.1,1.7-0.2,3.2-0.3,4.7C1361.7,210.7,1360,210.7,1358.2,210.7z
		 M1457.7,157.7c0.1-1.8,0.2-3.3,0.3-5c1.7-0.2,3.2-0.4,4.8-0.5c0.2-1.8,0.3-3.3,0.4-4.7c1.8-0.2,3.4-0.3,5-0.5c0-1.7,0-3,0-4.4
		c-1.8-0.1-3.3-0.2-5-0.4c-0.2-1.7-0.4-3.2-0.5-4.8c-1.5,0-2.7,0-4.4,0c0,3.5,0,6.8,0,10.5c-3.7,0-6.9,0-10.3,0
		c-0.2,1.8-0.4,3.3-0.5,5c-1.9,0-3.5,0-5.2,0c-0.1-1.7-0.2-3.2-0.3-4.8c-1.6,0-3,0-4.5,0c0,3.3,0,6.4,0,9.9c3.5,0,6.8,0,10.2,0
		c0.1,1.8,0.2,3.3,0.3,4.9c1.5,0,2.8,0,4.2,0c0.2-1.7,0.4-3.2,0.5-4.8C1454.4,157.9,1455.9,157.9,1457.7,157.7z M1463.8,211
		c0,6.9,0,13.6,0,20.4c1.7,0.1,3.3,0.2,4.8,0.2c0.1,1.8,0.2,3.5,0.4,5.1c1.7,0,3,0,4.7,0c0-3.5,0-6.8,0-10.2
		c1.8-0.1,3.2-0.2,4.8-0.3c0-3.3,0-6.4,0-9.9c-3.4,0-6.6,0-9.9,0c-0.1-2-0.3-3.6-0.4-5.3C1466.7,211,1465.4,211,1463.8,211z
		 M1453.1,189.4c3.4,0,6.7,0,10.1,0c0,2.2,0,4.1,0,6c-3.5,0-6.8,0-10.1,0c0,1.6,0,3,0,4.4c1.7,0.2,3.2,0.3,4.9,0.4
		c0.2,1.6,0.4,3.1,0.5,4.7c1.4,0,2.7,0,4.1,0c0.2-1.7,0.4-3.2,0.6-4.8c1.8-0.1,3.3-0.2,5.2-0.4c0-3.5,0-6.8,0-10.3
		c1.9-0.1,3.4-0.2,4.9-0.3c0-1.7,0-3,0-4.5c-6.9,0-13.5,0-20.2,0C1453.1,186.3,1453.1,187.7,1453.1,189.4z M1442.5,226.1
		c5.1,0,10.1,0,15,0c0-5.2,0-10,0-15c-5.1,0-10,0-15,0C1442.5,216.2,1442.5,221.1,1442.5,226.1z M1341.7,179.6c-1.5,0-2.8,0-4.2,0
		c-0.1,1.7-0.2,3.2-0.2,4.8c-1.8,0.2-3.5,0.4-5.1,0.5c0,1.6,0,2.8,0,4.2c1.8,0.2,3.3,0.4,5,0.6c0.1,1.7,0.2,3.2,0.4,4.7
		c1.7,0.1,3.2,0.3,4.8,0.4c0.1,1.8,0.3,3.3,0.4,4.9c1.6,0,3,0,4.5,0c0-5,0-9.7,0-14.7c-1.7-0.3-3.3-0.5-5-0.8
		C1342,182.8,1341.8,181.3,1341.7,179.6z M1457.8,237.1c1.9-0.1,3.3-0.2,4.9-0.2c0-1.6,0-3,0-4.6c-3.3,0-6.4,0-9.7,0
		c0,1.7,0,3.2,0,4.8c-1.8,0.1-3.3,0.2-5,0.3c0,3.3,0,6.4,0,9.6c3.3,0,6.4,0,9.8,0C1457.8,243.6,1457.8,240.4,1457.8,237.1z
		 M1400.5,89.9c0,7,0,13.6,0,20.2c1.6,0,2.9,0,4.4,0c0.2-1.7,0.4-3.2,0.6-4.7c1.7-0.2,3.1-0.3,4.7-0.5c0-3.3,0-6.4,0-9.6
		c-1.8-0.1-3.3-0.2-4.9-0.3c-0.1-1.6-0.2-3-0.3-4.7C1403.4,90.2,1402.1,90.1,1400.5,89.9z M1442,169c-1.7,0-3.1,0-4.6,0
		c0,3.3,0,6.4,0,9.5c5.1,0,10,0,14.9,0c0.1-1.8,0.2-3.2,0.3-4.7c1.8-0.1,3.4-0.2,5-0.3c0-1.7,0-3.1,0-4.5c-3.3,0-6.4,0-9.6,0
		c-0.2,1.8-0.3,3.4-0.5,5.1c-1.9,0-3.6,0-5.3,0C1442.1,172.4,1442,170.8,1442,169z M1316.1,120.7c3.5,0,6.6,0,10,0
		c-0.1-1.6-0.2-3-0.3-4.6c-1.8,0-3.3,0-4.8,0c0-2,0-3.7,0-5.5c1.7-0.2,3.2-0.4,4.8-0.5c0-1.5,0-2.7,0-4.1c-3.3,0-6.4,0-9.8,0
		c0,1.8,0,3.3,0,4.8c-1.8,0.1-3.3,0.2-4.9,0.3c0,1.7,0,3,0,4.5c1.7,0.1,3.3,0.2,5,0.3C1316.1,117.5,1316.1,119,1316.1,120.7z
		 M1394.4,69c-5.1,0-9.9,0-15,0c0.1,1.6,0.1,3.1,0.2,4.7c1.8,0,3.4,0,5.1,0c0,1.7,0,3.3,0,4.9c3.3,0,6.4,0,9.6,0
		C1394.4,75.4,1394.4,72.3,1394.4,69z M1358.4,148.1c0,3.4,0,6.5,0,9.6c3.3,0,6.5,0,9.6,0c0-3.3,0-6.4,0-9.6
		C1364.7,148.1,1361.6,148.1,1358.4,148.1z M1326.4,142.4c0.2,1.6,0.4,3.1,0.6,4.7c3.3,0,6.3,0,9.5,0c0-1.6,0-3,0-4.4
		c-1.7-0.2-3.2-0.3-4.7-0.5c-0.2-1.7-0.3-3.1-0.4-4.6c-3.3,0-6.4,0-9.6,0c0,1.6,0,3,0,4.4C1323.4,142.1,1324.8,142.2,1326.4,142.4z
		 M1420.7,211.1c-3.4,0-6.5,0-9.6,0c0,1.6,0,3,0,4.4c1.6,0.2,3.1,0.3,4.7,0.5c0.1,1.6,0.3,3.1,0.4,4.7c1.6,0,3,0,4.5,0
		C1420.7,217.4,1420.7,214.3,1420.7,211.1z M1416.1,236.8c3.4,0,6.5,0,9.8,0c0-3.3,0-6.4,0-9.7c-1.5,0-2.8,0-4.2,0
		c-0.2,1.7-0.4,3.2-0.6,4.7c-1.8,0.2-3.4,0.3-5,0.5C1416.1,233.9,1416.1,235.2,1416.1,236.8z M1421.6,189.2c1.6,0,3,0,4.4,0
		c0.1-1.8,0.3-3.3,0.4-4.9c1.8-0.1,3.4-0.2,4.9-0.3c0-1.7,0-3,0-4.5c-3.3,0-6.4,0-9.7,0C1421.6,182.9,1421.6,185.9,1421.6,189.2z
		 M1431.4,226.2c0.1-1.8,0.2-3.4,0.3-5c1.7-0.2,3.2-0.3,4.8-0.5c0-1.5,0-2.7,0-4.1c-3.3,0-6.4,0-9.6,0c0,3.3,0,6.4,0,9.6
		C1428.3,226.2,1429.7,226.2,1431.4,226.2z M1442.6,184.7c0,3.2,0,6.4,0,9.8c3.3,0,6.4,0,9.5,0c0-1.5,0-2.8,0-4.2
		c-1.8-0.2-3.3-0.3-4.7-0.4c-0.2-1.8-0.3-3.4-0.5-5.1C1445.4,184.7,1444.1,184.7,1442.6,184.7z M1357.8,79.6c-1.6,0-3,0-4.5,0
		c0,3.3,0,6.4,0,9.6c1.6,0,3,0,4.5,0C1357.8,86,1357.8,82.9,1357.8,79.6z M1362.9,63.9c-1.7,0-3,0-4.5,0c0,3.3,0,6.5,0,9.6
		c1.6,0,3,0,4.5,0C1362.9,70.2,1362.9,67.2,1362.9,63.9z M1321.8,126.8c0,1.6,0,3,0,4.5c3.4,0,6.5,0,9.8,0c-0.1-1.6-0.2-3-0.2-4.5
		C1328,126.8,1325,126.8,1321.8,126.8z M1341.7,153.3c-3.3,0-6.5,0-9.6,0c0,1.7,0,3,0,4.4c3.3,0,6.4,0,9.6,0
		C1341.7,156.1,1341.7,154.7,1341.7,153.3z M1384,173.4c-0.1-1.5-0.2-2.9-0.3-4.4c-3.4,0-6.4,0-9.6,0c0,1.5,0,2.8,0,4.4
		C1377.4,173.4,1380.5,173.4,1384,173.4z M1394.3,94.4c0-3.4,0-6.5,0-9.7c-1.5,0-2.7,0-4.1,0c0,3.3,0,6.4,0,9.7
		C1391.6,94.4,1392.9,94.4,1394.3,94.4z M1363.8,173.4c1.6,0,2.8,0,4.2,0c0-3.3,0-6.4,0-9.6c-1.5,0-2.8,0-4.2,0
		C1363.8,167.2,1363.8,170.2,1363.8,173.4z M1363.8,190.1c0,3.4,0,6.4,0,9.7c1.5,0,2.8,0,4.2,0c0-3.3,0-6.4,0-9.7
		C1366.5,190.1,1365.3,190.1,1363.8,190.1z M1474.4,200.8c0,3.2,0,6.4,0,9.6c1.5,0,2.8,0,4.1,0c0-3.3,0-6.4,0-9.6
		C1477.2,200.8,1476,200.8,1474.4,200.8z M1311.2,184.7c0,3.5,0,6.7,0,9.8c1.6,0,2.9,0,4.2,0c0-3.4,0-6.6,0-9.8
		C1313.8,184.7,1312.6,184.7,1311.2,184.7z M1416.1,73.5c1.7,0,3,0,4.5,0c0-1.6,0-2.9,0-4.4c-1.6,0-3,0-4.5,0
		C1416.1,70.6,1416.1,72,1416.1,73.5z M1305,189.2c0-1.6,0-3,0-4.5c-1.6,0-2.9,0-4.4,0c0,1.6,0,3,0,4.5
		C1302.1,189.2,1303.5,189.2,1305,189.2z M1463.7,157.7c1.7,0,3.1,0,4.5,0c0-1.6,0-3,0-4.5c-1.6,0-2.9,0-4.5,0
		C1463.7,154.8,1463.7,156.1,1463.7,157.7z M1416.2,99.9c1.5,0,2.8,0,4.5,0c0.1-1.5,0.1-3,0.2-4.6c-1.8,0-3.2,0-4.7,0
		C1416.2,96.9,1416.2,98.3,1416.2,99.9z M1342.6,89.2c1.6,0,3,0,4.5,0c0-1.6,0-2.9,0-4.4c-1.6,0-3,0-4.5,0
		C1342.6,86.4,1342.6,87.7,1342.6,89.2z M1373.5,221.7c-1.6,0-3,0-4.5,0c0,1.5,0,2.9,0,4.4c1.6,0,3,0,4.5,0
		C1373.5,224.6,1373.5,223.3,1373.5,221.7z M1426.9,153.2c0,1.6,0,2.9,0,4.7c1.6-0.1,3-0.3,4.4-0.4c0-1.7,0-3,0-4.4
		C1429.6,153.2,1428.3,153.2,1426.9,153.2z M1352.2,105c0-1.7,0-3,0-4.5c-1.6,0-2.9,0-4.5,0c0.1,1.6,0.2,3,0.3,4.5
		C1349.6,105,1350.8,105,1352.2,105z M1384.7,220.7c1.7,0,3.1,0,4.5,0c0-1.5,0-2.7,0-4.1c-1.6,0-3,0-4.5,0
		C1384.7,218,1384.7,219.2,1384.7,220.7z M1415.6,90.2c-1.6,0-3,0-4.5,0c0,1.5,0,2.8,0,4.1c1.6,0,3,0,4.5,0
		C1415.6,92.9,1415.6,91.6,1415.6,90.2z M1342.6,152.2c1.6,0,3,0,4.5,0c0-1.5,0-2.7,0-4.1c-1.6,0-3,0-4.5,0
		C1342.6,149.6,1342.6,150.8,1342.6,152.2z M1310.2,174.4c-1.7,0-3.1,0-4.5,0c0,1.5,0,2.8,0,4.1c1.6,0,3,0,4.5,0
		C1310.2,177.1,1310.2,175.8,1310.2,174.4z M1441.9,205c0-1.5,0-2.8,0-4.1c-1.6,0-3,0-4.5,0c0,1.5,0,2.7,0,4.1
		C1439,205,1440.3,205,1441.9,205z M1378.6,227.1c-1.7,0-3,0-4.5,0c0,1.5,0,2.7,0,4.1c1.6,0,3,0,4.5,0
		C1378.6,229.8,1378.6,228.6,1378.6,227.1z M1468.9,105.9c0,1.5,0,2.8,0,4.2c1.6,0,3,0,4.4,0c0-1.5,0-2.8,0-4.2
		C1471.8,105.9,1470.5,105.9,1468.9,105.9z M1474.4,111.1c0,1.6,0,3,0,4.5c1.5,0,2.8,0,4.2,0c0-1.6,0-2.9,0-4.5
		C1477.1,111.1,1475.9,111.1,1474.4,111.1z M1352.2,78.7c0-1.7,0-3.1,0-4.5c-1.5,0-2.8,0-4.2,0c0,1.6,0,3,0,4.5
		C1349.3,78.7,1350.6,78.7,1352.2,78.7z M1411,231.3c1.7,0,3.1,0,4.5,0c0-1.5,0-2.8,0-4.4c-1.7,0.1-3.1,0.2-4.5,0.3
		C1411,228.7,1411,229.9,1411,231.3z M1474.4,237.4c0,1.6,0,3,0,4.5c1.5,0,2.8,0,4.2,0c0-1.5,0-2.9,0-4.5
		C1477.2,237.4,1475.9,237.4,1474.4,237.4z M1468.2,247.1c0-1.6,0-2.9,0-4.2c-1.6,0-2.9,0-4.5,0c0,1.5,0,2.7,0,4.2
		C1465.3,247.1,1466.6,247.1,1468.2,247.1z M1310.1,110.2c0-1.5,0-2.8,0-4.3c-1.6,0-2.9,0-4.4,0c0,1.5,0,2.8,0,4.3
		C1307.2,110.2,1308.4,110.2,1310.1,110.2z M1379.5,226.1c1.4,0,2.7,0,4.2,0c0-1.5,0-2.9,0-4.5c-1.5,0-2.8,0-4.2,0
		C1379.5,223.2,1379.5,224.6,1379.5,226.1z M1373.4,205c0-1.4,0-2.7,0-4.2c-1.6,0-3,0-4.4,0c0,1.5,0,2.8,0,4.2
		C1370.5,205,1371.7,205,1373.4,205z M1321.7,194.5c1.4,0.1,2.6,0.2,4.2,0.2c0-1.6,0-3,0-4.6c-1.4,0-2.7,0-4.2,0
		C1321.7,191.7,1321.7,193,1321.7,194.5z M1295.4,194.6c1.6,0,2.8,0,4.2,0c0-1.5,0-2.9,0-4.4c-1.5,0-2.8,0-4.2,0
		C1295.4,191.7,1295.4,193,1295.4,194.6z M1425.9,90c-1.5,0.1-2.9,0.1-4.2,0.2c0,1.6,0,2.9,0,4.2c1.5,0,2.8,0,4.2,0
		C1425.9,92.8,1425.9,91.6,1425.9,90z M1448,205c1.6,0,2.8,0,4.2,0c0-1.5,0-2.8,0-4.1c-1.5,0-2.8,0-4.2,0
		C1448,202.3,1448,203.5,1448,205z M1348.1,220.6c1.4,0,2.7,0,4.2,0c0-1.4,0-2.7,0-4.1c-1.5,0-2.7,0-4.2,0
		C1348.1,217.9,1348.1,219,1348.1,220.6z M1337.5,90.2c0,1.5,0,2.7,0,4.2c1.5,0,2.7,0,4.2,0c0-1.5,0-2.7,0-4.2
		C1340.2,90.2,1338.9,90.2,1337.5,90.2z M1341.7,63.9c-1.5,0-2.7,0-4.2,0c0,1.5,0,2.7,0,4.2c1.5,0,2.7,0,4.2,0
		C1341.7,66.6,1341.7,65.3,1341.7,63.9z M1383.7,110.2c0-1.5,0-2.8,0-4.2c-1.5,0-2.8,0-4.2,0c0,1.5,0,2.8,0,4.2
		C1381,110.2,1382.2,110.2,1383.7,110.2z M1432.3,162.9c1.5,0,2.7,0,4.2,0c0-1.5,0-2.7,0-4.1c-1.5,0-2.8,0-4.2,0
		C1432.3,160.2,1432.3,161.5,1432.3,162.9z M1348,94.4c1.6,0,2.9,0,4.2,0c0-1.5,0-2.8,0-4.1c-1.5,0-2.8,0-4.2,0
		C1348,91.7,1348,92.9,1348,94.4z M1390.1,227.1c0,1.5,0,2.8,0,4.2c1.5,0,2.8,0,4.2,0c0-1.5,0-2.7,0-4.2
		C1392.9,227.1,1391.6,227.1,1390.1,227.1z M1458.7,178.6c1.3,0,2.6,0,4.1,0c0-1.5,0-2.7,0-3.9
		C1459.3,173.7,1457.9,175,1458.7,178.6z"/>
	<path d="M1326.7,215.9c0,12.4,0,24.6,0,37c-12.4,0-24.6,0-37,0c0-12.4,0-24.6,0-37C1301.9,215.9,1314.2,215.9,1326.7,215.9z
		 M1320.8,247.1c0-8.6,0-16.9,0-25.4c-8.6,0-16.9,0-25.3,0c0,8.5,0,16.8,0,25.4C1303.9,247.1,1312.2,247.1,1320.8,247.1z"/>
	<path d="M1289.4,95.1c0-12.3,0-24.6,0-37c12.5,0,24.7,0,37.1,0c0,12.3,0,24.5,0,37C1314.3,95.1,1302.1,95.1,1289.4,95.1z
		 M1320.7,89.3c0-8.6,0-17,0-25.4c-8.6,0-16.9,0-25.3,0c0,8.6,0,17,0,25.4C1304,89.3,1312.2,89.3,1320.7,89.3z"/>
	<path d="M1447.4,58.1c12.3,0,24.5,0,37.1,0c0,12.3,0,24.6,0,37c-12.4,0-24.6,0-37.1,0C1447.4,82.8,1447.4,70.5,1447.4,58.1z
		 M1478.5,89.3c0-8.6,0-16.9,0-25.4c-8.6,0-16.9,0-25.4,0c0,8.6,0,16.9,0,25.4C1461.6,89.3,1469.9,89.3,1478.5,89.3z"/>
	<path d="M1352.7,252.8c0-1.7,0-3.3,0-5.3c5.4,0,10.6,0,16,0c0,1.6,0,3.3,0,5.3C1363.3,252.8,1358.1,252.8,1352.7,252.8z"/>
	<path d="M1331.7,210.9c-5.2,0-10.4,0-15.9,0c0-2,0-3.8,0-5.6c5.3,0,10.4,0,15.8,0c0.1,1.9,0.2,3.6,0.2,5.4
		C1331.8,210.8,1331.7,210.8,1331.7,210.9z"/>
	<path d="M1479,152.7c1.9,0,3.6,0,5.3,0c0,3.7,0,7.2,0,10.8c-1.8,0-3.4,0-5.3,0C1479,159.9,1479,156.4,1479,152.7z"/>
	<path d="M1400.1,252.8c-1.9,0-3.5,0-5.3,0c0-3.6,0-7,0-10.5c1.8,0,3.5,0,5.3,0C1400.1,245.7,1400.1,249.2,1400.1,252.8z"/>
	<path d="M1295,152.7c0,1.9,0,3.5,0,5.4c-1.7,0-3.5,0-5.4,0c0-1.8,0-3.5,0-5.4C1291.3,152.7,1293,152.7,1295,152.7z"/>
	<path d="M1289.6,179.2c0-1.8,0-3.5,0-5.4c1.7,0,3.4,0,5.3,0c0,1.8,0,3.5,0,5.4C1293.1,179.2,1291.5,179.2,1289.6,179.2z"/>
	<path d="M1305.8,126.1c-0.2,0.2-0.3,0.4-0.5,0.6c-1.7,0-3.4,0-5.3,0c0-1.9,0-3.6,0-5.5c1.7,0,3.4,0,5.2,0
		C1305.4,123,1305.6,124.5,1305.8,126.1z"/>
	<path d="M1405.5,137.2c-2,0-3.7,0-5.6,0c0.1-1.8,0.2-3.6,0.3-5.5c1.8-0.2,3.4-0.3,5.3-0.5C1405.5,133.1,1405.5,135,1405.5,137.2z"
		/>
	<path d="M1400.1,121c0,2,0,3.7,0,5.5c-1.7,0-3.3,0-5.3,0c0-1.9,0-3.6,0-5.5C1396.6,121,1398.2,121,1400.1,121z"/>
	<path d="M1452.8,221.3c-1.9,0-3.5,0-5.3,0c-0.2-1.8-0.3-3.5-0.5-5.5c2,0,3.9,0,5.9,0C1452.8,217.8,1452.8,219.4,1452.8,221.3z"/>
	<path d="M1300,226.4c5.3,0,10.5,0,15.9,0c0,5.2,0,10.5,0,16c-5.2,0-10.4,0-15.9,0C1300,237.1,1300,231.8,1300,226.4z"/>
	<path d="M1315.9,68.5c0,5.3,0,10.5,0,15.8c-5.3,0-10.5,0-15.9,0c0-5.3,0-10.4,0-15.8C1305.4,68.5,1310.6,68.5,1315.9,68.5z"/>
	<path d="M1473.9,84.4c-5.4,0-10.4,0-15.8,0c0-5.3,0-10.5,0-15.9c5.1,0,10.3,0,15.8,0C1473.9,73.8,1473.9,79,1473.9,84.4z"/>
</g>
</svg>
