<?xml version="1.0" encoding="utf-8"?>
<!-- Generator: Adobe Illustrator 26.2.0, SVG Export Plug-In . SVG Version: 6.00 Build 0)  -->
<svg version="1.1"
	 id="svg48" sodipodi:docname="lamarr-logo.png" xmlns:inkscape="http://www.inkscape.org/namespaces/inkscape" xmlns:sodipodi="http://sodipodi.sourceforge.net/DTD/sodipodi-0.dtd" xmlns:svg="http://www.w3.org/2000/svg"
	 xmlns="http://www.w3.org/2000/svg" xmlns:xlink="http://www.w3.org/1999/xlink" x="0px" y="0px" viewBox="0 0 2950.4 241.7"
	 style="enable-background:new 0 0 2950.4 241.7;" xml:space="preserve">
<style type="text/css">
	.st0{fill:#FFFFFF;}
</style>
<sodipodi:namedview  bordercolor="#eeeeee" borderopacity="1" id="namedview50" inkscape:current-layer="g54" inkscape:cx="1376.2975" inkscape:cy="495.56748" inkscape:deskcolor="#505050" inkscape:pagecheckerboard="0" inkscape:pageopacity="0" inkscape:showpageshadow="0" inkscape:window-height="1413" inkscape:window-maximized="1" inkscape:window-width="3440" inkscape:window-x="0" inkscape:window-y="27" inkscape:zoom="0.79706601" pagecolor="#505050" showgrid="false">
	</sodipodi:namedview>
<g id="g54" inkscape:groupmode="layer" inkscape:label="Image">
	<g id="g1543">
		<path id="path1474" class="st0" d="M1102.2,119.2l0.3-103.8l51.5,0c56.1,0,60.3,0.4,75,6.1c18.9,7.4,31.8,21.3,36.7,39.5
			c2.2,8.2,2.4,28.2,0.4,35.9c-5,19.3-18.6,34.5-36.9,40.8c-2.3,0.8-3.1,1.6-2.6,2.4c0.4,0.7,12.2,19,26.2,40.7
			c14,21.7,25.7,40,25.9,40.8c0.4,1.1-3.7,1.4-23.5,1.4h-24l-15.3-25.2c-8.4-13.9-19.1-31.7-23.9-39.5l-8.6-14.3l-19,0.3l-19,0.3
			l-0.3,39.2L1145,223h-21.5H1102L1102.2,119.2z M1207,108c11.9-5.2,16.5-12.8,16.5-27.1c-0.1-14.8-5.6-22.9-18.7-27.2
			c-5.4-1.8-9.7-2.1-31-2.5c-13.6-0.3-25.8-0.2-27.2,0.2L1144,52v29.6v29.6l28.8-0.4C1200.4,110.4,1201.7,110.3,1207,108z"/>
		<path id="path1472" class="st0" d="M889.2,119.2l0.3-103.8l51.5,0c49.5,0,51.9,0.1,62,2.3c33.8,7.2,51.9,28.7,52.1,61.7
			c0.1,11.8-2,21.1-6.7,30.5c-5.9,11.9-17.8,22.5-29.7,26.7c-3.5,1.2-4.7,2.2-4.4,3.3c0.2,0.9,11.9,19.3,25.9,41s25.8,40,26.2,40.7
			c0.6,1-4.4,1.2-23.6,1.2h-24.3l-7.1-11.8c-13.2-21.9-39.6-64.7-40.6-66c-0.7-0.9-6-1.2-19.9-1.2H932l-0.3,39.2l-0.3,39.2
			l-21.3,0.3L889,223L889.2,119.2z M994.7,107.6c11.3-5.2,15.4-12.2,15.4-26.2c0-9.4-2.5-16.9-7.2-21.4c-3.8-3.7-11.8-6.8-20.2-8
			c-8.3-1.1-47.4-1.5-50.1-0.5c-1.4,0.5-1.6,4.1-1.6,30.1v29.5l28.8-0.4l28.8-0.4L994.7,107.6z"/>
		<path id="path1470" class="st0" d="M398,119.6c0-56.8,0.2-103.5,0.4-103.8c0.2-0.2,14.5-0.2,31.6,0.1l31.2,0.5L479.6,72
			c10.1,30.5,21.3,66,25,78.8s7,23.2,7.4,23.2s3.7-10.5,7.4-23.2s14.9-48.2,25-78.8l18.3-55.5l30.3-0.5c16.6-0.3,30.5-0.3,30.7-0.1
			c0.2,0.2,0.4,46.9,0.4,103.8V223l-19.2-0.3l-19.2-0.3l-0.3-40.5c-0.2-22.3,0.2-59.5,0.9-82.8c0.7-23.3,1-42.5,0.8-42.7
			c-0.4-0.4-6.7,17.9-48.1,139.7l-9.1,26.8h-18.1h-18.1l-12.1-35.8c-6.7-19.7-19.2-56.7-27.9-82.2s-16.2-47-16.7-47.5
			c-0.6-0.6-0.7,3.6-0.4,11.5c0.3,6.9,0.9,44.3,1.2,83.2l0.6,70.8h-20.1H398V119.6z"/>
		<path id="path1468" class="st0" d="M655,223.4c0-0.6,8.8-25.2,11.4-31.9c0.9-2.2,15.3-41.8,32-88s30.8-84.8,31.1-85.8
			c0.6-1.6,2.8-1.8,26.4-1.8h25.7L801,69.2c44.8,123.5,55,151.9,55,153.3c0,1.2-3.4,1.5-22,1.5h-22l-8.2-25.5l-8.2-25.5H756h-39.7
			l-3.6,10.2c-2,5.6-5.9,17.1-8.8,25.5l-5.2,15.2h-21.9C664.8,224,655,223.7,655,223.4z M785,140.7c0-0.1-4.1-12.4-9-27.2
			c-5-14.8-11.3-34.4-14.1-43.5c-2.8-9.1-5.4-16.9-5.8-17.3s-2.2,4.5-4,11s-8,26-13.7,43.4S728,139.2,728,139.8
			c0,0.8,7.8,1.1,28.5,1.1C772.2,141,785,140.9,785,140.7z"/>
		<path id="path1466" class="st0" d="M166,222.9c0-0.9,31.7-89,46.1-127.9c2.7-7.4,10.3-28.1,16.7-46l11.7-32.5l25.7-0.3l25.7-0.3
			l1.1,2.8c0.6,1.5,9,24.4,18.6,50.8C347.6,168.2,367,222.1,367,223c0,0.6-8.3,0.9-22.2,0.7l-22.2-0.3l-8.1-25l-8.1-25h-39.9h-39.9
			l-7.8,23c-4.3,12.6-8.3,24-8.8,25.2c-1,2.2-1.1,2.2-22.5,2.2C172.9,224,166,223.6,166,222.9z M295,140.7c0-0.1-4.1-12.4-9-27.2
			c-5-14.8-11.3-34.4-14.1-43.5s-5.4-16.9-5.8-17.3c-0.4-0.4-2.6,5.9-5,14c-2.4,8.1-8.5,27.6-13.7,43.4s-9.4,29.1-9.4,29.8
			c0,0.9,7.4,1.2,28.5,1.2C282.2,141,295,140.9,295,140.7z"/>
		<path id="path1464" class="st0" d="M0,120V16h21.5H43l0.3,86.2l0.3,86.2l54.2,0.3L152,189v17.5V224H76H0V120z"/>
	</g>
	<g id="g1535" transform="translate(1384.4532,-333.28102)">
		<path id="path1462" class="st0" d="M1423,344.9c-1.5-2.8-0.3-5.8,2.6-6.6c3-0.7,5.4,1.1,5.4,4C1431,346.9,1425.1,348.8,1423,344.9
			L1423,344.9z"/>
		<path id="path1460" class="st0" d="M930.6,345.4c-1.8-1.8-1.9-2.9-0.5-5.5c2-3.7,8-1.8,8,2.6C938,346.7,933.6,348.4,930.6,345.4z"
			/>
		<path id="path1458" class="st0" d="M184,344.9c-1.5-2.8-0.3-5.8,2.6-6.6c3-0.7,5.4,1.1,5.4,4C192,346.9,186.1,348.8,184,344.9z"/>
		<path id="path1456" class="st0" d="M1313.2,386.2l0.3-28.8l2.2-0.3c2-0.3,2.2,0.1,2.2,3.2c0,6.3,1,7.2,3.6,3.3
			c2.4-3.5,9.5-7.7,13.1-7.7c1.1,0,3.7,0.7,5.7,1.5c3.1,1.3,3.6,1.9,3,3.8c-0.9,2.9-0.7,2.8-4.1,1.5c-4.6-1.8-9.9-0.3-14.2,4
			c-5.4,5.4-6.2,9.2-6.2,30V415h-3h-3L1313.2,386.2z"/>
		<path id="path1454" class="st0" d="M570,386c0-27.7,0.1-29,1.9-29c2.1,0,3.1,2.6,3.1,8l0,3.5l1.9-3c4.7-7.7,13.7-11.3,20-8
			c3.2,1.7,3.6,2.3,2.6,4.9c-0.5,1.2-1.2,1.3-4,0.4c-7.3-2.2-17,4.2-19.4,13c-0.6,2.1-1.1,11.8-1.1,21.6l0,17.8h-2.5H570V386z"/>
		<path id="path1452" class="st0" d="M1452,387v-29.1l2.8,0.3c2.5,0.3,2.8,0.7,3.1,5l0.3,4.7l4.3-4.3c5.2-5.2,9.9-6.9,17.7-6.3
			c7.2,0.5,13.2,4.3,16.3,10.3c1.9,3.6,2.1,6,2.4,26.2l0.3,22.2h-2.5h-2.5l-0.3-21.2c-0.3-19.2-0.5-21.6-2.4-24.8
			c-5.8-9.9-23.4-9.2-30.3,1.3c-2.6,4-2.7,4.4-3.2,24.1l-0.5,20.1l-2.8,0.3l-2.8,0.3L1452,387z"/>
		<path id="path1450" class="st0" d="M1424.5,414.7c-0.3-0.7-0.4-13.6-0.2-28.8l0.3-27.5l2.8-0.3l2.8-0.3v29.1V416h-2.5
			C1426.1,416,1424.7,415.4,1424.5,414.7z"/>
		<path id="path1448" class="st0" d="M1357.5,414.7c-0.3-0.7-0.4-13.6-0.2-28.8l0.3-27.5l2.8-0.3c2.7-0.3,2.8-0.2,2.8,4.9v5.2
			l3.7-3.8c11.9-12.3,31.1-9,36.5,6.2c0.9,2.7,1.3,9.8,1.3,24.3v20.5l-2.7,0.3l-2.7,0.3l-0.3-22c-0.3-20.4-0.5-22.2-2.4-24.8
			c-3.4-4.6-8-6.5-15.1-6.1c-7.1,0.4-11.5,2.9-15.4,8.6c-2.4,3.5-2.5,4.3-2.8,23.9l-0.3,20.2h-2.5
			C1359,416,1357.7,415.4,1357.5,414.7L1357.5,414.7z"/>
		<path id="path1446" class="st0" d="M1127,378v-38h2.5h2.5v35v35l22.8,0.3l22.8,0.3l0.3,2.8l0.3,2.8h-25.6H1127V378z"/>
		<path id="path1444" class="st0" d="M958.5,414.8c-0.3-0.7-0.4-13.7-0.2-28.8l0.3-27.5l2.8-0.3c2.7-0.3,2.8-0.3,2.8,5.5v5.8
			l2.6-3.8c7.1-10.5,25.5-11.4,33.6-1.8c4.7,5.5,5.2,9,5.3,31.2l0,20.5l-2.8,0.3l-2.8,0.3v-20.4c0-19.1-0.1-20.6-2.2-24.8
			c-2.7-5.4-7.3-8-14.2-8c-6.7,0-13,3.2-16.4,8.3c-2.6,4-2.7,4.4-3.2,24.1c-0.5,19.9-0.5,20.1-2.8,20.4
			C960,416,958.8,415.5,958.5,414.8L958.5,414.8z"/>
		<path id="path1442" class="st0" d="M931.5,414.7c-0.3-0.7-0.4-13.6-0.2-28.8l0.3-27.5l2.8-0.3l2.8-0.3v29.1V416h-2.5
			C933.1,416,931.7,415.4,931.5,414.7L931.5,414.7z"/>
		<path id="path1440" class="st0" d="M810.9,413.2c-7-3.6-11.2-9.7-12.9-18.7c-2.4-12.6,0.8-24.3,8.5-31.4
			c11.3-10.4,31.8-7.1,39,6.3c2.1,3.9,2,4.1-1.2,5c-1.8,0.5-2.6,0-4.5-3.4c-4.1-7.3-13.2-10.6-22.2-8c-9.2,2.6-14,10.6-14,23.5
			c0,12.5,4.1,19.7,13,23.1c9.3,3.5,21.7-0.6,24.4-8.1c1.3-3.5,3.1-4.3,5.7-2.7c1.9,1.2-1.7,8.1-6.4,11.9c-4.6,3.8-9.5,5.2-17.7,5.2
			C817.6,416,815.1,415.4,810.9,413.2L810.9,413.2z"/>
		<path id="path1438" class="st0" d="M467.7,415.3c-0.4-0.4-0.7-12-0.7-25.9v-25.3l-5.2-0.3c-4.9-0.3-5.3-0.5-5.6-3.1
			c-0.3-2.7-0.2-2.8,5.1-2.8h5.4l0.7-8.2c0.8-9.9,2.9-13.8,9-16.7c5-2.4,9.4-2.6,14.1-0.7c2.6,1.1,3.3,1.9,2.9,3.4
			c-0.5,1.8-1.1,1.9-6.5,1.4c-10.2-0.9-13.9,2.8-13.9,14.2v6.5h10h10v3v3h-10h-10v26v26h-2.3C469.4,416,468,415.7,467.7,415.3z"/>
		<path id="path1436" class="st0" d="M186,387v-29h3h3v29v29h-3h-3V387z"/>
		<path id="path1434" class="st0" d="M18,387v-29h2.4c2.1,0,2.4,0.6,3,5l0.7,5l3.2-3.7c9.5-10.8,26.9-9.7,34.2,2.2l3,4.8l0.3,22.4
			l0.3,22.4l-2.8-0.3l-2.8-0.3L59,393.9c-0.4-18.5-0.8-21.9-2.3-24.3C49,357.9,28,362.5,24,376.8c-0.6,2-1,11.7-1,21.5l0,17.7h-2.5
			H18V387z"/>
		<path id="path1432" class="st0" d="M-11,378v-38h3h3v38v38h-3h-3V378z"/>
		<path id="path1430" class="st0" d="M1254,414.7c-5.5-2.9-8.3-7.8-7.6-13.1c1.2-9.6,9-13.9,31.9-17.7l6.8-1.1v-4.7
			c0-9.5-5.9-15.1-15.8-15.1c-8,0-12.5,2.6-16.8,9.6c-1.1,1.8-1.2,1.8-3.2,0c-1.9-1.7-2-2.1-0.7-4.5c3.7-7.2,11.2-11.1,21.1-11.1
			c7.5,0,11.9,1.6,15.7,5.6c4.3,4.6,4.8,7.4,4.8,26.2c0,21.1,0.5,22.7,6.8,22.7c3.7,0,4.1,0.2,3.6,2c-0.8,2.7-2.2,3.5-6.2,3.5
			c-3.8,0-8.2-3.7-8.2-7c0-1.9-0.3-1.9-3.2,0.9C1276,417.2,1262.2,419,1254,414.7L1254,414.7z M1277,408.7c6.5-3.3,8.4-6.5,8.9-14.8
			c0.3-5.7,0.1-7-1.1-7c-1.9,0-19.6,3.6-22.2,4.6c-3.5,1.2-8.6,5.5-9.5,8c-1.4,3.6,0.7,8.4,4.4,10
			C1262.4,411.7,1271.9,411.3,1277,408.7z"/>
		<path id="path1428" class="st0" d="M1199.6,415.5c-10.9-4-16.6-13.9-16.6-28.6c0-18.3,10.2-29.6,26.6-29.4
			c7.8,0.1,14.6,3.3,18.5,8.7c3.4,4.7,4.7,8.9,5.6,17.5l0.6,6.2h-22.6c-18.1,0-22.6,0.3-22.6,1.3c0,3.4,3.2,11.5,5.5,13.9
			c7.9,8.5,22.5,8.8,30.6,0.6c4.1-4.1,4.6-4.3,6.8-3c2,1.3-3,7.5-8.7,10.8C1217.7,417,1205.8,417.9,1199.6,415.5z M1228.6,380.2
			c-1.2-6.9-4.7-12.4-9.5-14.9c-7.2-3.8-17.7-2.7-23.4,2.5c-2.5,2.3-5.4,8-6.2,12.5l-0.7,3.7h20.2h20.2L1228.6,380.2z"/>
		<path id="path1426" class="st0" d="M1038.8,415.6c-11.3-4.2-16.8-13.4-16.8-28c0-13.6,4.9-23,14.4-27.9c5.1-2.6,16.3-2.9,21.7-0.6
			c8.3,3.6,13.3,11.9,14.5,24.4l0.7,6.4h-22.8h-22.8l0.6,3.7c1.8,11.4,9.3,17.8,20.7,17.8c7.4,0,12.1-2,16-6.6
			c1.7-2,3.1-2.8,4.2-2.3c1,0.4,1.7,1.1,1.7,1.7c0,2.2-4.4,6.9-8.7,9.5C1056.7,416.9,1044.9,417.9,1038.8,415.6z M1067.5,380.7
			c-1.3-6.7-2.6-9.5-5.8-12.5c-4-3.9-7.6-5.2-13.5-5.2c-8.9,0-16.2,5.4-19,13.9c-2.5,7.5-3.5,7.1,18.9,7.1h20.1L1067.5,380.7z"/>
		<path id="path1424" class="st0" d="M863,375v-42h2.5h2.5v18v18l3.5-3.9c1.9-2.1,5.1-4.7,7.1-5.6c4.6-2.2,15.7-2.3,20.4-0.2
			c4.2,1.9,9.5,7.2,10.9,11c0.6,1.7,1.1,11.7,1.1,24.8v22l-2.8-0.3l-2.8-0.3l-0.5-21.5c-0.6-23.8-0.9-25.1-7.3-29
			c-3.8-2.3-12.2-2.6-17-0.6c-4.2,1.8-9.1,7.2-10.6,11.5c-0.7,2-1.1,10.7-1.1,21.8V417h-3h-3L863,375z"/>
		<path id="path1422" class="st0" d="M744.2,415.8c-1.8-0.6-4.6-2.6-6.2-4.5c-2.4-2.7-3-4.3-3-7.9c0-11,7.3-15.6,30.8-19.4l7.2-1.2
			l0-5.2c0-9.6-5.5-14.7-16-14.7c-6.4,0-12.1,2.8-15,7.5c-2.5,4.1-3.1,4.2-5.4,1.7c-1.6-1.8-1.5-2.1,1.6-6.2c4.8-6.3,10.5-9,19.2-9
			c11.5,0,18.5,4.6,20.6,13.6c0.5,2.2,0.9,11.9,0.9,21.6c0,19.7,0.3,20.4,6.5,19.7c2.8-0.3,3.5-0.1,3.5,1.4c0,3.3-6.8,5.1-10.9,2.9
			c-1-0.5-2.4-2.3-3.1-4c-1.3-3.1-1.3-3.1-3.4-1.2c-4.2,3.8-9,5.5-16.6,5.8C750.9,416.8,746,416.4,744.2,415.8L744.2,415.8z
			 M764.7,409c6-2.7,8.3-6.9,8.3-15.3c0-3.7-0.3-6.8-0.7-6.8c-2.8,0-18.8,3.6-23.1,5.2c-8,3-11.2,8.4-8.2,14
			C743.7,411,756.8,412.6,764.7,409z"/>
		<path id="path1420" class="st0" d="M673.3,399.3c-3.9-9.8-9.9-25.1-13.4-34.1l-6.4-16.3l-0.3,33.6L653,416h-2.5H648v-38.1v-38.1
			l4.2,0.3l4.2,0.3l9.3,23c7.7,19,12.8,32.3,16.9,43.5c0.3,0.8,2.2-3.2,4.3-9s8.1-21.1,13.3-34l9.5-23.5l4.1-0.3l4.1-0.3v38.1V416
			h-3.1h-3.1l0.3-34c0.2-18.7,0.2-33.7,0-33.2c-0.2,0.4-6.2,15.8-13.5,34.3C681.9,425.6,683.3,424.7,673.3,399.3z"/>
		<path id="path1418" class="st0" d="M515.4,415.3c-5.3-1.9-11-7.4-13.7-13.3c-1.7-3.7-2.1-6.5-2.1-15.1c0-9.8,0.2-10.9,3-16
			c3.8-7,9.8-11.5,17-13c20.9-4.3,36.6,13.1,32.5,36c-2,10.9-6.3,16.9-15,20.9C531.6,417.3,521.6,417.6,515.4,415.3z M536.8,409
			c7.7-4.3,11-12.8,9.9-25.6c-0.7-8.4-4.4-14.7-10.7-18.1c-3.9-2.1-5.5-2.4-11.7-2c-9.2,0.6-13.3,3.1-17.1,10.7
			c-2.3,4.6-2.7,6.8-2.7,13.5c0,12.5,5,20.5,14.5,23.4C524,412.4,532.3,411.5,536.8,409z"/>
		<path id="path1416" class="st0" d="M376.5,414.6c-10.7-5-15-13.8-14.3-29.5c0.3-8.5,0.7-10.3,3.5-15.2
			c9.4-16.9,34.8-16.8,43.4,0.2c1.6,3.1,3.7,13.4,3.9,19.1c0,0.4-10.2,0.8-22.6,0.8h-22.6l0.7,4.2c0.9,6.1,5.3,12.7,10.1,15.2
			c5.8,3,15.6,2.9,21.2-0.4c2.3-1.3,4.3-2.7,4.3-3s0.7-1.4,1.4-2.4c1.5-2,5.5-1.5,5.5,0.7c0,2.3-8.5,9.5-12.9,11.1
			C391.5,417.8,382.5,417.4,376.5,414.6L376.5,414.6z M407.4,381.2c-2.2-10.1-7.2-16.6-14-17.8c-12.6-2.4-23.1,4.5-25,16.3l-0.7,4.2
			h20.1H408L407.4,381.2z"/>
		<path id="path1414" class="st0" d="M336.5,416.1c-9.7-2.4-10.5-4.7-10.5-31V364h-5.5c-5.4,0-5.5,0-5.5-3c0-3,0.1-3,5.5-3h5.5
			l0.3-7.2c0.3-6.7,0.5-7.3,2.5-7.6c2.2-0.3,2.2,0,2.2,7.8v8.1h11h11v2.5v2.5h-11h-11v19.9c0,21.4,0.6,25.1,4.7,27.2
			c3.4,1.8,9.7,1.6,12.9-0.5c2-1.3,2.9-1.4,4-0.5c2.1,1.8,1.8,2.6-1.8,4.2C346.5,416.2,340.3,417,336.5,416.1L336.5,416.1z"/>
		<path id="path1412" class="st0" d="M265.5,415.1c-4.9-2.2-9-6.9-10.4-11.9c-0.6-2-1-12.8-1-24l0-20.2h3h3l0,21.8
			c0,19.8,0.2,22,2,24.9c3.1,5.1,6.2,6.5,13.7,6.5c5.5,0,7.4-0.5,11.2-2.9c7.9-4.9,8.7-7.6,9-30.6c0.3-18.5,0.4-19.8,2.2-19.8
			c1,0,2.6-0.3,3.4-0.6c1.4-0.5,1.6,2.4,1.6,28.6v29.2l-2.8-0.3c-2.5-0.3-2.8-0.7-3.3-5.8c-0.3-3-0.7-5-0.8-4.3
			c-0.3,2.1-6.5,7.6-10.6,9.5C280.2,417.5,270.8,417.5,265.5,415.1L265.5,415.1z"/>
		<path id="path1410" class="st0" d="M226.5,416.3c-4.7-1-7.6-2.8-9.5-5.8c-1.8-3-2-5-2-24.8v-21.6l-5.8-0.3
			c-5.4-0.3-5.8-0.5-5.8-2.8c0-2.3,0.4-2.5,5.7-2.8l5.7-0.3l0.3-7.2c0.3-6.6,0.5-7.2,2.5-7.5c2.2-0.3,2.2,0,2.2,7.8v8.1h11h11v2.5
			v2.5h-11h-11v20.5c0,23.7,0.5,25.7,6.8,27.4c4,1.1,9.1,0.2,11.8-2c1.1-0.9,1.8-0.9,2.9,0.1c0.8,0.7,1.5,1.6,1.5,2
			C243,414.2,231.1,417.3,226.5,416.3z"/>
		<path id="path1408" class="st0" d="M156.6,415.8c-9.4-2.2-10.6-5.6-10.6-31.3V364h-5.5c-5.4,0-5.5,0-5.5-3c0-3,0.1-3,5.5-3h5.5
			l0.3-7.2c0.3-6.7,0.5-7.3,2.5-7.6c2.2-0.3,2.2,0,2.2,7.8v8.1h11h11v2.5v2.5h-10.5H152v19.9c0,21.4,0.6,25.1,4.7,27.2
			c3.4,1.8,9.7,1.6,12.8-0.5c2.7-1.8,4.5-1.4,4.5,1C174,414.7,163.1,417.4,156.6,415.8L156.6,415.8z"/>
		<path id="path1406" class="st0" d="M95.1,415.9c-5.8-1.1-11.8-5.1-13.8-9.4c-1.6-3.3-1.6-3.5,0.2-4.8c1.6-1.2,2.3-0.9,5.9,2.9
			c5.8,6,15.2,8.1,24.7,5.5c10.7-3,11-15.5,0.5-18.9c-1.7-0.6-6.4-1.7-10.5-2.5c-14.7-3.1-20.1-7.4-20.1-16.1c0-5.3,3.3-10.2,9-13.4
			c3.8-2.1,5.8-2.5,13-2.5c10.1,0,15.5,2.4,18.9,8.5c2.7,4.8,2.7,5.4-0.4,6.8c-2.3,1-2.6,0.9-4-1.8c-3.7-7.1-11.6-10.1-20.6-8
			c-7.1,1.7-10.9,5.1-10.9,9.9c0,6.1,4.8,9,19.9,12c12.3,2.5,18.1,7.4,18.1,15.2c0,4.9-1.3,8.1-4.7,11.2
			C115.1,415.2,104.2,417.6,95.1,415.9z"/>
		<path id="path1404" class="st0" d="M1526.4,439.1c-13-3.3-18.6-14.2-11.2-21.6c1.8-1.8,3.9-3.4,4.6-3.7c1-0.3,0.5-1.3-1.8-3.6
			c-2.3-2.3-3.1-4-3.1-6.6c0-3.9,3.7-9.1,7.1-10.2c1.9-0.6,1.9-0.9-1.4-4.3c-4.6-4.8-5.7-7.2-5.7-12c0-11.5,8.2-18.4,22-18.5
			c4.1,0,8.9,0.3,10.5,0.7c2.8,0.7,3.1,0.5,4.3-2.8c1.4-3.9,4.1-6.1,9.2-7.5c3.9-1.1,3.6-1.2,4.5,2.3c0.6,2.5,0.4,2.7-1.8,2.7
			c-3.2,0-8.7,4.5-8.7,7.2c0,1.1,1.1,3.3,2.5,4.9c4.6,5.5,4.7,15.4,0.2,21.3c-4.4,5.7-10.2,7.8-22.3,7.9
			c-10.2,0.1-10.6,0.2-12.9,2.9c-2.9,3.4-3,5.7-0.5,8.8c1.8,2.3,2.6,2.4,17.8,2.9c17.3,0.6,21.7,1.7,24.6,6.3
			c2.3,3.6,2.2,10.2-0.3,14.3c-1.3,2.1-4.1,4.3-7.8,6.1c-5,2.4-7,2.8-16.2,3C1534.2,439.8,1528.1,439.5,1526.4,439.1L1526.4,439.1z
			 M1550.6,433.8c9-2.3,13.2-10.2,8-15.3c-3-3-8.5-3.9-22.8-3.4c-8.9,0.3-11.9,0.8-14,2.2c-4.8,3.2-4.9,10.1-0.1,13.3
			C1527.6,434.6,1541.5,436.1,1550.6,433.8L1550.6,433.8z M1547.9,388.2c1.9-1,4.4-3,5.5-4.6c2.7-3.6,2.8-11.2,0.2-15.1
			c-5.8-8.8-24.7-8.5-30,0.4c-2.1,3.5-2.1,10.2-0.1,14.1C1526.7,389.3,1540.3,392.1,1547.9,388.2L1547.9,388.2z"/>
		<path id="path1402" class="st0" d="M947.1,481.5c-0.7-0.8-1-2.7-0.9-4.2c0.3-2.4,0.8-2.9,3.6-3.1c2.7-0.3,3.5,0.1,4.4,2.2
			c1,2.1,0.9,2.9-0.6,4.6C951.4,483.3,948.7,483.6,947.1,481.5L947.1,481.5z"/>
		<path id="path1400" class="st0" d="M530.6,480.9c-2.9-4.2,2-9.1,5.9-5.8c2.1,1.7,1.8,5.7-0.5,6.9
			C533.3,483.4,532.3,483.2,530.6,480.9z"/>
		<path id="path1398" class="st0" d="M442.4,480.5c-1.5-2.4-1.5-2.7,0.1-4.5c3.1-3.4,7.5-1.9,7.5,2.5
			C450,483.2,445.1,484.5,442.4,480.5z"/>
		<path id="path1396" class="st0" d="M375.1,481.5c-0.7-0.8-1-2.7-0.9-4.2c0.3-2.4,0.8-2.8,3.2-2.8c1.8,0,3.4,0.8,4.3,2.2
			c1.3,2,1.2,2.4-0.6,4.2C378.6,483.3,376.7,483.5,375.1,481.5L375.1,481.5z"/>
		<path id="path1394" class="st0" d="M1098,522v-29h2.4c2.1,0,2.5,0.6,3.1,4.9l0.7,4.9l3.2-3.6c6.2-7.1,16.8-9.2,25.7-5.2
			c5.7,2.6,7.7,4.4,10.4,9.4c2,3.7,2.1,5.4,2.1,25.5v21.5l-2.6,0.3l-2.6,0.3l-0.4-20.8c-0.4-22.8-1-25.1-7.1-29.6
			c-6.6-4.9-19.8-2.6-25.1,4.4c-3.9,5.2-4.7,10-4.7,28.6l0,17.2h-2.5h-2.5V522z"/>
		<path id="path1392" class="st0" d="M949,522v-29h2.5h2.5v29v29h-2.5H949V522z"/>
		<path id="path1390" class="st0" d="M713,522v-29h2.4c2.5,0,3.6,2.1,3.6,7.3l0,2.8l3-3.5c10.5-11.9,29.5-9.3,36.1,4.9
			c1.6,3.5,1.9,6.7,1.9,25.2l0,21.2h-2.4h-2.4l-0.4-20.8c-0.3-17.7-0.6-21.3-2.2-24.5c-5.6-11.4-25.3-9.8-31.8,2.6
			c-2.1,3.9-2.3,5.9-2.6,23.5l-0.4,19.2h-2.4H713V522z"/>
		<path id="path1388" class="st0" d="M685,513v-38h2.5h2.5v38v38h-2.5H685V513z"/>
		<path id="path1386" class="st0" d="M532,522v-29h2.5h2.5v29v29h-2.5H532V522z"/>
		<path id="path1384" class="st0" d="M376,522v-29h2.5h2.5v29v29h-2.5H376V522z"/>
		<path id="path1382" class="st0" d="M291.5,549.7c-0.3-0.7-0.4-13.6-0.2-28.8l0.3-27.5l2.2-0.3c1.9-0.3,2.3,0.1,2.3,3
			c0,1.8,0.4,4.1,0.8,5.2c0.7,1.7,0.8,1.6,1.9-0.6c2.9-6.4,12.5-10.1,19.7-7.7c3.1,1,3.6,1.6,3.1,3.4c-0.3,1.2-0.6,2.5-0.6,2.9
			c0,0.4-1,0.3-2.2-0.4c-2.7-1.5-10.1-0.7-13.3,1.5c-1.4,0.9-3.8,3.5-5.3,5.8c-2.7,4.1-2.7,4.2-3.1,24.5l-0.3,20.3h-2.5
			C293.1,551,291.7,550.4,291.5,549.7z"/>
		<path id="path1380" class="st0" d="M50,522v-29h2.4c2.1,0,2.5,0.6,3.1,4.9l0.7,4.9l3.2-3.6c8-9.1,22.1-9.8,31.7-1.5
			c6.5,5.6,7,7.6,7,31.9V551h-3h-3l0-20.8c0-17.8-0.3-21.2-1.8-24.2c-2.4-4.8-6.3-7.3-12.1-7.8c-9-0.9-16.8,3.5-20.3,11.2
			c-1.6,3.5-1.8,6.8-1.9,22.8l0,18.8h-3h-3V522z"/>
		<path id="path1378" class="st0" d="M1239.9,550.6c-11.6-4.2-17.9-16.1-16.6-31.7c1.4-16.8,10.6-26.2,25.7-26.2
			c10.9-0.1,18,4.3,21.9,13.4c2,4.7,4.3,16.7,3.4,18.2c-0.2,0.4-10.5,0.8-22.9,0.8H1229l0.6,2.8c1.4,6.4,3.8,11.4,7,14.1
			c8.1,7.1,21.1,6.7,28.8-1c2.7-2.7,4.5-3.7,5.8-3.3c2.6,0.8,2.4,1.8-1.4,6.1C1263.2,551,1249.9,554.2,1239.9,550.6L1239.9,550.6z
			 M1269,516.2c0-1.6-1.2-5.3-2.8-8.2c-2.2-4.3-3.7-5.9-7.2-7.7c-11.9-6-26,1-28.9,14.5l-0.9,4.2h19.9h19.9V516.2z"/>
		<path id="path1376" class="st0" d="M1182.6,550.9c-13.3-2.1-21.5-15-20.3-32c0.8-11.8,5.5-19.9,14.2-24.7
			c4.3-2.4,17.8-2.3,22.5,0.2c4.4,2.3,9.7,7.3,11.6,10.8c1.3,2.5,1.2,2.8-0.5,3.8c-2.7,1.4-4.1,1.3-4.1-0.4c0-2.6-6-8.4-10.5-10.1
			c-8.2-3.1-18.6-0.2-23.1,6.6c-3.5,5.3-5,15.1-3.6,23c2.4,12.7,9.7,18.6,21.8,17.7c9.1-0.7,13.1-3.7,17-12.5c0.1-0.2,1.3,0,2.7,0.3
			c2.3,0.6,2.4,0.9,1.6,3.4C1208.3,547.1,1195.9,553,1182.6,550.9L1182.6,550.9z"/>
		<path id="path1374" class="st0" d="M1046.8,551c-11.8-3.5-18.8-16.7-17.4-32.4c1.6-16.7,10.6-25.9,25.6-25.9
			c10.6-0.1,17.1,3.7,21.5,12.4c2.2,4.3,4.8,17.5,3.8,19.2c-0.2,0.4-10.5,0.8-22.8,0.8h-22.3l0.8,4.5c1.1,5.9,3.1,9.7,6.9,12.9
			c8,6.7,20.9,6,28.4-1.5c2.7-2.7,4.5-3.7,5.8-3.3c1,0.3,1.9,1.1,1.9,1.7c0,2.2-9.6,10.3-13.6,11.5
			C1060.8,552.1,1051,552.2,1046.8,551z M1075,516.2c0-1.6-1.2-5.3-2.8-8.2c-3.7-7.4-9.1-10.3-17.9-9.6c-3.4,0.3-7.5,1.3-9.3,2.3
			c-4.3,2.5-7.9,8-9,13.7l-0.9,4.7h19.9h19.9V516.2z"/>
		<path id="path1372" class="st0" d="M922.3,551c-5.1-2-5.3-3.9-5.3-44.9v-38h2.5h2.5v37v37l2.6,2.6c2.3,2.3,3.1,2.5,7.6,1.9
			c4.9-0.6,5-0.6,4.3,1.6c-0.4,1.3-1.2,2.6-1.8,3C933.1,552.2,925,552.1,922.3,551L922.3,551z"/>
		<path id="path1370" class="st0" d="M889.7,549.9c-1.4-1.1-3.1-3.7-3.6-5.8c-0.6-2.2-1-18.2-1-40l0-36.3h3h3v37.5
			c0,36.8,0,37.5,2.1,39.6c1.8,1.8,2.8,2,7,1.5c4.7-0.6,4.9-0.5,4.9,1.8c0,2.7-2.1,3.6-8.6,3.6C893.7,552,891.3,551.2,889.7,549.9z"
			/>
		<path id="path1368" class="st0" d="M833.5,550.4c-5.4-2-10.9-7.6-13.6-13.8c-2.9-6.6-3.2-19.7-0.6-27.1
			c3.6-10.6,11.8-16.6,23-16.8c15.5-0.3,24.8,9.3,25.9,26.9l0.3,5l-22.2,0.3L824,525l0,2.2c0,17.7,22.6,26.4,35.4,13.6
			c2.7-2.7,4.5-3.7,5.8-3.3c2.7,0.9,2.3,2-2.2,6.9c-2.6,2.8-5.8,5-8.7,6C848.6,552.3,838.8,552.3,833.5,550.4L833.5,550.4z
			 M862.6,514.3c-0.8-5.6-3.7-10.5-8-13.6c-2.6-1.9-4.5-2.3-10.8-2.3c-7,0-8,0.2-11.4,3.1c-4.3,3.4-7.2,8.5-8.1,13.8l-0.6,3.6h19.8
			h19.8L862.6,514.3z"/>
		<path id="path1366" class="st0" d="M788.4,550.5c-6.3-3.2-6.9-5.6-7.3-29.8l-0.4-21.8h-5.4c-5.1,0-5.4-0.1-5.4-2.5
			c0-2.4,0.3-2.5,5.5-2.5h5.5l0.3-7.2c0.3-6.9,0.4-7.2,3-7.9l2.8-0.7v8.4v8.4h11h11v2.5v2.5h-11h-11v20.6c0,20.8,0.4,23.5,3.9,26.2
			c2.6,2,10.5,1.6,13.3-0.7c2.5-1.9,2.5-1.9,4.2-0.1c1.6,1.8,1.6,2-1,3.7C803.7,552.1,792.6,552.6,788.4,550.5L788.4,550.5z"/>
		<path id="path1364" class="st0" d="M622.8,549.1l-3.3-2.9l-0.3-39.1l-0.3-39.1h2.5h2.5l0.3,37.6l0.3,37.6l2.5,2
			c2,1.6,3.4,1.9,7.2,1.4c4.3-0.6,4.8-0.4,4.8,1.4c0,2.7-2.9,4.1-8.4,4.1C627,552,625.4,551.4,622.8,549.1L622.8,549.1z"/>
		<path id="path1362" class="st0" d="M561.1,549.8c-5.6-2.9-8.4-7.8-7.7-13.2c1.2-9.6,9-13.9,31.9-17.7l6.8-1.1v-4.7
			c0-9.4-5.9-15.2-15.5-15.1c-6.8,0-13,3-15.6,7.4c-2.4,4.1-2.6,4.1-5,1.9c-1.6-1.4-1.6-1.9-0.4-4.2c3.8-7.3,11.2-11.1,21.4-11.1
			c8.7,0,14.7,2.9,17.9,8.6c2.1,3.7,2.2,5.1,2.3,22.4c0,22,0.5,23.5,6.8,23.5c2.6,0,4.2,0.5,4.2,1.2c0,2.3-3.2,4.3-6.6,4.3
			c-4.1,0-8.4-3.7-8.4-7.2c0-2-0.1-2.1-1-0.6c-0.6,1-3.1,2.9-5.6,4.4c-3.7,2.2-6.2,2.8-12.7,3.1
			C566.6,552.1,564.9,551.8,561.1,549.8z M583.6,544.2c6.6-3.4,7.8-5.4,8.3-13.9l0.4-7.5l-5.4,0.7c-10.3,1.4-20.3,4.5-23.9,7.4
			c-6.3,5.1-5.1,12.8,2.4,15.1C570,547.4,579.1,546.5,583.6,544.2L583.6,544.2z"/>
		<path id="path1360" class="st0" d="M486.2,550.9c-10.4-2-16.9-8.5-19.8-19.9c-6.7-26.4,14.2-47,36.4-36c4,2,7.2,4.5,9.2,7.2
			c3,4.1,3.9,6.7,2.1,6.7c-0.5,0-1.6,0.3-2.4,0.6c-1,0.4-2.2-0.8-3.8-3.5c-1.3-2.3-3.8-5-5.5-6.1c-4.7-2.9-12.4-3.6-17.7-1.5
			c-8.9,3.4-12.9,10.6-13,23.3c-0.1,7.2,0.3,8.9,2.9,13.9c4,7.9,9.2,10.7,18.6,10.2c7.9-0.4,13.6-3.7,16.3-9.2
			c1.7-3.6,3-4.3,5.4-2.7c1.1,0.7,1,1.6-0.7,4.9C509.3,548.2,498,553.1,486.2,550.9z"/>
		<path id="path1358" class="st0" d="M442.7,551.4c-0.4-0.4-0.7-13.5-0.7-29V494h3h3l-0.3,28.8c-0.3,28.1-0.3,28.8-2.3,29
			C444.3,551.9,443.1,551.7,442.7,551.4L442.7,551.4z"/>
		<path id="path1356" class="st0" d="M405.8,525.8l-0.3-26.3l-5.8-0.3c-5.4-0.3-5.8-0.5-5.8-2.8c0-2.3,0.3-2.5,6-2.5h6v-7.8
			c0-9.7,1.9-13.7,8-17c4.9-2.6,10.8-2.9,14.9-0.8c2,1.1,2.7,2,2.4,3.4c-0.4,1.7-1.2,1.8-6.8,1.4c-10.2-0.8-13.6,2.9-13.6,14.9v5.9
			h10h10v2.5c0,2.5,0,2.5-10,2.5h-10l-0.3,26.2l-0.3,26.2l-2.2,0.3l-2.2,0.3L405.8,525.8z"/>
		<path id="path1354" class="st0" d="M342.4,550.5c-6.3-3.2-6.9-5.6-7.3-29.8l-0.3-21.8h-5.4c-5.1,0-5.4-0.1-5.4-2.5
			c0-2.4,0.3-2.5,5.5-2.5h5.5l0.3-7.2c0.3-6.9,0.4-7.2,3-7.9l2.8-0.7v8.4v8.4h10.5H362v2.5v2.5h-10.5H341v20.6
			c0,20.8,0.4,23.5,3.9,26.2c2.6,2,10.5,1.6,13.3-0.7c2.5-1.9,2.5-1.9,4.2-0.1c1.6,1.8,1.6,2-1,3.7
			C357.7,552.1,346.6,552.6,342.4,550.5L342.4,550.5z"/>
		<path id="path1352" class="st0" d="M212,551.3c0-0.4,6.6-17.6,14.7-38.1l14.7-37.3l3.6,0l3.6,0l14.2,36.2
			c7.8,19.9,14.5,37,14.9,38c0.5,1.4,0.1,1.8-2.3,1.8c-2.9,0-3.1-0.4-7.4-11.8l-4.4-11.8l-18.1-0.3l-18.1-0.3l-4.4,11.8
			c-4.3,11.5-4.5,11.8-7.6,12.1C213.5,552,212,551.7,212,551.3L212,551.3z M254.2,506.2c-3.6-8.7-7-17.8-7.7-20.2l-1.2-4.5l-1.7,5
			c-0.9,2.8-4.4,11.5-7.6,19.5c-7,17.1-8.1,15.7,11.6,15.9l13.1,0.1L254.2,506.2z"/>
		<path id="path1350" class="st0" d="M-8.9,549.9c-5.3-2.7-8.7-9-7.6-14.2c1.8-8.3,8.9-12.5,26.7-15.8l11.8-2.2l0-4.6
			c0-9.6-5.7-15.1-15.5-15.1c-6.8,0-13.3,3.3-16,8.3l-2.1,3.8l-2.2-2.4l-2.2-2.4l3.3-4.4c4.7-6.2,10.5-8.9,19.3-8.9
			c9.4,0,15,2.7,18.5,9c2.4,4.3,2.5,5.4,2.9,24c0.2,12.1,0.8,20,1.5,20.8c0.7,0.8,2.5,1.2,4.9,1c2.5-0.2,3.8,0,3.8,0.8
			c0,2.3-3.1,4.3-6.6,4.3c-4.1,0-8.4-3.7-8.4-7.2v-2.3l-1.6,2.2c-2.8,4-9.2,6.5-17.9,6.9C-3.3,552-5.2,551.8-8.9,549.9z M9.7,545.8
			c2.8-0.7,6-2.6,8.4-4.8c3.8-3.6,3.9-3.8,3.9-10.9c0-5.5-0.3-7.2-1.4-7.2c-3.5,0-20.8,4-24,5.5c-6.8,3.2-9.4,9.3-6,14.2
			C-6.8,546.6,1.4,547.9,9.7,545.8L9.7,545.8z"/>
		<path id="path1348" class="st0" d="M130.6,551.4c-6.2-2.3-10.2-6-13.3-12.2c-2.5-5.2-2.8-6.8-2.8-15.8c0-12.2,1.7-17.4,7.8-23.2
			c9.2-8.9,23.4-9.6,32.8-1.5c2.3,2,4.5,4.5,5,5.6c0.5,1.3,0.9-5.6,0.9-17.2L161,468h3h3v42v42h-2.4c-2.9,0-3.6-1.6-3.6-7.8v-4.6
			l-3,4.1C152,551.8,140.4,555,130.6,551.4L130.6,551.4z M152.4,543.3c6.3-4.4,9-10.8,9-20.8c0-7.2-0.4-9-2.9-14
			c-3.7-7.1-9-10.4-16.9-10.4c-14,0.1-21.5,10.1-20.4,27.4c0.9,14.4,8.9,22.1,21.7,21.1C146.8,546.2,149.5,545.3,152.4,543.3
			L152.4,543.3z"/>
		<path id="path341" class="st0" d="M979,573c-5.8-2-10.5-6.3-11.6-10.6c-1-4.2,1.7-9.7,6-12.1c3.7-2.1,3.8-2.2,1.7-3.3
			c-3.1-1.7-5.4-6.7-4.6-10.1c0.4-1.6,2.4-4.4,4.5-6.3l3.9-3.3l-3-2.8c-9.1-8.8-6.8-23,4.7-28.6c5.1-2.5,15.5-3.2,21.9-1.6
			c2.8,0.7,3.2,0.5,4.3-2.2c0.7-1.6,2.3-3.9,3.5-5.1c2.5-2.3,10.5-4,10.5-2.2c0,0.6,0.3,1.8,0.6,2.6c0.4,1.1,0,1.6-1.5,1.6
			c-3.2,0-7.5,2.5-8.9,5.3c-1.2,2.2-1,2.9,1.7,6.6c7.3,10.1,3.9,22.1-7.8,27.4c-3.4,1.6-6.7,2.1-14,2.1c-5.5,0.1-10.4,0.6-11.7,1.4
			c-4.5,2.5-4.2,10.2,0.5,12c1.5,0.6,8.9,1.2,16.3,1.4c11.6,0.3,14.2,0.7,18.3,2.7c12.3,5.9,8.5,21-6.4,25.4
			C1000.4,575.6,986.1,575.5,979,573L979,573z M1006.2,568.9c2-0.6,5.1-2.2,6.8-3.6c2.6-2.2,3-3.2,2.8-6.6
			c-0.5-6.6-3.6-8.1-16.9-8.6c-6-0.2-13-0.1-15.5,0.3c-13.2,2-13,14.6,0.2,18.1C989.6,570.1,1001.2,570.3,1006.2,568.9L1006.2,568.9
			z M1003.7,523c4.8-2.2,7.3-6.2,7.3-11.8c0-8.7-8.4-15.1-18.6-14c-9.6,1-14.3,5-15.2,13c-0.6,5.2,2.5,10.4,7.7,13
			C989.7,525.6,998.3,525.5,1003.7,523z"/>
	</g>
</g>
</svg>
